<svg width="54" height="54" viewBox="0 0 54 54" fill="none" xmlns="http://www.w3.org/2000/svg">
<path d="M22 29.5C24.1724 32.4042 27.4991 34.2218 31.1166 34.4808C34.7342 34.7399 38.2859 33.415 40.85 30.85L48.35 23.35C53.0872 18.4453 53.0194 10.6489 48.1977 5.82727C43.3761 1.0056 35.5797 0.937847 30.675 5.675L26.375 9.95" stroke="#03A84E" stroke-width="3" stroke-linecap="round" stroke-linejoin="round"/>
<path d="M32 24.5C29.8276 21.5958 26.5009 19.7782 22.8834 19.5192C19.2658 19.2601 15.7141 20.585 13.15 23.15L5.65001 30.65C0.912861 35.5547 0.980609 43.3511 5.80228 48.1727C10.624 52.9944 18.4203 53.0622 23.325 48.325L27.6 44.05" stroke="#03A84E" stroke-width="3" stroke-linecap="round" stroke-linejoin="round"/>
</svg>
