<svg width="55" height="55" viewBox="0 0 55 55" fill="none" xmlns="http://www.w3.org/2000/svg">
<path fill-rule="evenodd" clip-rule="evenodd" d="M52.5 39.1667C48.5027 47.1648 40.3303 52.2188 31.3889 52.2222C27.7226 52.2318 24.1059 51.3752 20.8333 49.7222L8.79473 53.7351C7.23122 54.2563 5.74374 52.7688 6.26491 51.2053L10.2778 39.1667C8.62481 35.8941 7.76822 32.2774 7.77778 28.6111C7.78124 19.6697 12.8352 11.4973 20.8333 7.5C24.1059 5.84704 27.7226 4.99045 31.3889 5H32.7778C44.7661 5.66139 54.3386 15.2339 55 27.2222V28.6111C55.0096 32.2774 54.153 35.8941 52.5 39.1667Z" fill="#4EB548" fill-opacity="0.15"/>
<path d="M15.8333 44.7224C19.1059 46.3753 22.7226 47.2319 26.3889 47.2224C35.3303 47.2189 43.5027 42.165 47.5 34.1668L15.8333 44.7224ZM15.8333 44.7224L3.79473 48.7352C2.23122 49.2564 0.743739 47.7689 1.26491 46.2054L5.27778 34.1668L15.8333 44.7224ZM46.1611 33.4905L46.1582 33.4962C42.4149 40.9863 34.7617 45.7191 26.3883 45.7224L26.385 45.7224C22.9549 45.7313 19.5713 44.9299 16.5096 43.3835C16.1526 43.2032 15.7384 43.1729 15.359 43.2994L3.32039 47.3122C2.92951 47.4425 2.55764 47.0706 2.68794 46.6798L6.7008 34.6412C6.82728 34.2617 6.79699 33.8475 6.61667 33.4905C5.07022 30.4289 4.26883 27.0452 4.27778 23.6152L4.27778 23.6118C4.28102 15.2385 9.01391 7.5853 16.5039 3.84193L16.5096 3.83905C19.5713 2.2926 22.9549 1.49121 26.385 1.50016H26.3889H27.7358C38.9282 2.13801 47.8622 11.072 48.5 22.2644L48.5 23.6113L48.5 23.6152C48.5089 27.0452 47.7076 30.4289 46.1611 33.4905Z" stroke="#03A84E" stroke-width="3" stroke-linecap="round" stroke-linejoin="round"/>
</svg>
