<svg width="60" height="55" viewBox="0 0 60 55" fill="none" xmlns="http://www.w3.org/2000/svg">
<path fill-rule="evenodd" clip-rule="evenodd" d="M22.9048 38.881C23.3542 41.1434 25.3605 42.7585 27.6667 42.7143H50.8095C53.1158 42.7585 55.1221 41.1434 55.5715 38.881L59.381 18.9048H18.9048" fill="#4EB548" fill-opacity="0.15"/>
<path d="M21.0476 53.5C23.191 53.5 24.9286 51.7624 24.9286 49.619C24.9286 47.4757 23.191 45.7381 21.0476 45.7381C18.9042 45.7381 17.1667 47.4757 17.1667 49.619C17.1667 51.7624 18.9042 53.5 21.0476 53.5Z" stroke="#03A84E" stroke-width="3" stroke-linecap="round" stroke-linejoin="round"/>
<path d="M47.2381 53.5C49.3815 53.5 51.119 51.7624 51.119 49.619C51.119 47.4757 49.3815 45.7381 47.2381 45.7381C45.0947 45.7381 43.3571 47.4757 43.3571 49.619C43.3571 51.7624 45.0947 53.5 47.2381 53.5Z" stroke="#03A84E" stroke-width="3" stroke-linecap="round" stroke-linejoin="round"/>
<path d="M2 2H11.5238L17.9048 33.881C18.3541 36.1434 20.3604 37.7585 22.6667 37.7143H45.8095C48.1158 37.7585 50.1221 36.1434 50.5714 33.881L54.381 13.9048H13.9048" stroke="#03A84E" stroke-width="3" stroke-linecap="round" stroke-linejoin="round"/>
</svg>
