<?xml version="1.0" encoding="UTF-8"?>
<svg version="1.1" xmlns="http://www.w3.org/2000/svg" width="433" height="191">
<path d="M0 0 C3.66732514 0.91683128 6.90095809 2.46820553 10.30078125 4.11328125 C13.61538269 5.202159 16.21240294 5.01874876 19.6875 4.8125 C28.08759606 4.66249828 33.19234594 7.46156396 40 12 C42.01143067 12.59524807 44.03403264 13.15318381 46.0625 13.6875 C55.37458598 16.50808729 62.70705107 21.0019693 67.80859375 29.4609375 C69.9718396 34.07113357 71.52935198 38.91847215 72 44 C71.0625 46.35546875 71.0625 46.35546875 70 48 C69.21109375 47.51080078 69.21109375 47.51080078 68.40625 47.01171875 C65.31578051 45.71231681 62.84394258 45.77031724 59.5 45.8125 C58.3759375 45.81894531 57.251875 45.82539062 56.09375 45.83203125 C52.81479276 45.91201277 52.81479276 45.91201277 49 47 C53.29 47 57.58 47 62 47 C60.90550944 52.47245282 60.21096226 53.60736239 56 57 C52.44921875 58.36328125 52.44921875 58.36328125 48.6875 59.3125 C47.43324219 59.63863281 46.17898437 59.96476562 44.88671875 60.30078125 C43.93410156 60.53152344 42.98148438 60.76226562 42 61 C42.2165625 62.19753906 42.433125 63.39507812 42.65625 64.62890625 C45.59075655 81.48752455 47.92787945 99.57033893 38.5078125 114.94140625 C34.11393511 120.94030103 29.02134549 125.40401404 22.46875 128.89453125 C21.74171875 129.44173828 21.74171875 129.44173828 21 130 C21 130.99 21 131.98 21 133 C21.99 132.67 22.98 132.34 24 132 C25.33535494 131.92869496 26.67414379 131.91271782 28.01123047 131.93408203 C28.81938202 131.94370468 29.62753357 131.95332733 30.46017456 131.96324158 C31.33698883 131.97794998 32.2138031 131.99265839 33.1171875 132.0078125 C35.00910408 132.02794945 36.90103211 132.04703119 38.79296875 132.06518555 C39.78603027 132.07560883 40.7790918 132.0860321 41.80224609 132.09677124 C59.71435676 132.26132613 77.16495725 131.84709861 94.93261719 129.40576172 C97.96454139 129.00469056 100.99599668 128.68261439 104.0390625 128.37890625 C114.47732723 127.26364597 121.58241868 125.56927643 130 119 C132.41178188 117.31515856 134.84385373 115.66238375 137.27880859 114.01123047 C140.52779948 111.80714731 143.75619882 109.57372827 146.98339844 107.33789062 C149 106 149 106 152.0703125 104.359375 C152.70710938 103.91078125 153.34390625 103.4621875 154 103 C154 101.68 154 100.36 154 99 C154 97.68 154 96.36 154 95 C156.40859879 92.97170628 157.83044309 92 161 92 C162.42691334 97.15324754 161.24138239 99.57449458 158.8125 104.15625 C155.94588337 108.65387264 152.51801532 112.6216155 149.01171875 116.62890625 C146.89217411 118.6088351 146.89217411 118.6088351 147 120 C151.12417231 120.60137791 155.25003477 121.1887882 159.37792969 121.76391602 C160.77885036 121.96103129 162.17926176 122.16180494 163.57910156 122.36645508 C174.29132195 123.95384875 174.29132195 123.95384875 185 123 C185.87462891 122.84217041 186.74925781 122.68434082 187.65039062 122.52172852 C190.77252275 121.95772549 193.88606321 121.35756904 197 120.75 C198.12325684 120.53255127 199.24651367 120.31510254 200.40380859 120.09106445 C211.95914973 117.83957315 223.48355244 115.44178838 235 113 C234.67708984 111.09734375 234.67708984 111.09734375 234.34765625 109.15625 C233.98071289 106.99414063 233.98071289 106.99414063 234 105 C236.4375 102.5 236.4375 102.5 239 101 C240.88972722 104.27552719 241.43500935 107.2842957 242 111 C245.24416614 109.34026747 248.46693018 107.64250755 251.6875 105.9375 C252.59951172 105.47150391 253.51152344 105.00550781 254.45117188 104.52539062 C260.35164263 101.3713208 263.38206944 98.5888413 267 93 C270.125 92.375 270.125 92.375 273 93 C274.875 94.5 274.875 94.5 276 96 C273.16729867 98.56713558 270.99225408 100.00264818 267.34375 101.25 C262.39615726 103.03795218 258.60553486 105.96009343 254.5 109.1875 C253.77296875 109.74630859 253.0459375 110.30511719 252.296875 110.88085938 C250.52427918 112.24529168 248.75910966 113.61825393 247 115 C250.87787463 119.14531426 253.43894937 120.71668062 259 122 C260 123 260 123 260.0625 126.0625 C260.041875 127.031875 260.02125 128.00125 260 129 C254.89709416 127.69460548 252.66591273 125.66591273 249 122 C245.44415606 119.65075466 243.52195166 118.74646061 239.27282715 119.45431519 C235.89180926 120.43150757 232.58631057 121.54890059 229.265625 122.71484375 C227.34930477 123.34229383 225.43293377 123.96961094 223.51459408 124.59085941 C221.48316585 125.24919607 219.45418445 125.91473642 217.42520142 126.58056641 C194.65580309 134.00955033 174.29869604 139.36191545 150.11230469 135.74584961 C141.45228306 134.2152963 141.45228306 134.2152963 133.46630859 137.05859375 C130.06932582 139.87885625 126.9878472 143.02430559 125 147 C125.81597656 147.22816406 126.63195312 147.45632812 127.47265625 147.69140625 C130.27896904 148.73250789 132.40807289 149.75400405 134.93359375 151.27734375 C145.05128139 157.31243583 153.72738711 160.24065325 165.52124023 161.17749023 C166.45266846 161.25169189 167.38409668 161.32589355 168.34375 161.40234375 C169.17068359 161.44866943 169.99761719 161.49499512 170.84960938 161.54272461 C173.41812272 162.08891279 174.3511252 163.00516783 176 165 C174.3125 166.625 174.3125 166.625 172 168 C169.25 167.1875 169.25 167.1875 167 166 C167 165.34 167 164.68 167 164 C166.42781738 164.06171387 165.85563477 164.12342773 165.26611328 164.18701172 C151.06185594 165.59637804 140.15743835 164.60409411 127 159 C126.34 161.31 125.68 163.62 125 166 C122.69 166.33 120.38 166.66 118 167 C118.75 160.375 118.75 160.375 121 157 C112.11246191 153.28753513 105.07525433 152.63897825 95.5625 153.6875 C94.43779297 153.79255859 93.31308594 153.89761719 92.15429688 154.00585938 C89.89607483 154.21728395 87.63863021 154.43719183 85.38208008 154.66577148 C77.49283608 155.44541308 69.61925343 156.14966213 61.6875 156.0625 C60.59824219 156.05347656 59.50898438 156.04445312 58.38671875 156.03515625 C57.59910156 156.02355469 56.81148437 156.01195312 56 156 C58.11986343 159.17979514 59.34063972 160.78106513 63.0234375 162.00390625 C64.12945312 162.18824219 65.23546875 162.37257812 66.375 162.5625 C71.53785835 163.58461819 75.04934843 164.50085146 79 168 C79 168.66 79 169.32 79 170 C78.34 170 77.68 170 77 170 C77 171.32 77 172.64 77 174 C74.625 173.75 74.625 173.75 72 173 C70.625 171.0625 70.625 171.0625 70 169 C70.33 168.34 70.66 167.68 71 167 C69.39592672 166.97291433 67.7917215 166.95356517 66.1875 166.9375 C65.29417969 166.92589844 64.40085938 166.91429687 63.48046875 166.90234375 C60.86586209 166.88990033 60.86586209 166.88990033 58 168 C55.48301368 166.92745123 53.33194455 165.45196548 51 164 C50.62875 164.969375 50.2575 165.93875 49.875 166.9375 C48 170 48 170 44.8125 170.875 C43.884375 170.91625 42.95625 170.9575 42 171 C42.875 163.375 42.875 163.375 44 160 C36.42373785 154.94915857 20.95587184 160.70668174 12.3125 162.28125 C10.46560712 162.61476111 8.61865132 162.94792402 6.77163696 163.28076172 C2.8651894 163.9854598 -1.04081369 164.69255308 -4.94647217 165.40161133 C-11.01258442 166.50286585 -17.0796994 167.59852212 -23.14697266 168.69335938 C-34.76552232 170.79075394 -46.38293497 172.89439968 -58 175 C-58.79645432 175.14435486 -59.59290863 175.28870972 -60.41349792 175.43743896 C-61.17016251 175.57458313 -61.92682709 175.71172729 -62.7064209 175.85302734 C-63.43326458 175.98476601 -64.16010826 176.11650467 -64.90897751 176.25223541 C-66.30280109 176.50486492 -67.69662286 176.75750438 -69.09044266 177.01015472 C-74.47163402 177.98546436 -79.85319313 178.9587327 -85.23486328 179.93139648 C-88.31455396 180.48905467 -91.39362934 181.05001835 -94.47265625 181.61132812 C-96.28122754 181.93892611 -98.08981967 182.26640904 -99.8984375 182.59375 C-100.69406097 182.73981689 -101.48968445 182.88588379 -102.30941772 183.03637695 C-105.25255835 183.56655486 -108.00232187 184 -111 184 C-111.18263118 175.46271717 -110.67877168 167.16509212 -109.6875 158.6875 C-109.56955078 157.56021484 -109.45160156 156.43292969 -109.33007812 155.27148438 C-109.20439453 154.17513672 -109.07871094 153.07878906 -108.94921875 151.94921875 C-108.83924561 150.97299561 -108.72927246 149.99677246 -108.6159668 148.9909668 C-108 146 -108 146 -105 139 C-86.19 138.01 -86.19 138.01 -67 137 C-66.67 135.35 -66.34 133.7 -66 132 C-62.07957782 129.59172108 -58.020936 129.69372755 -53.51171875 129.5859375 C-52.4569207 129.55688828 -52.4569207 129.55688828 -51.3808136 129.5272522 C-49.14982981 129.46779817 -46.91879346 129.42120951 -44.6875 129.375 C-43.16859814 129.33678863 -41.64971722 129.29773508 -40.13085938 129.2578125 C-36.42076533 129.16212584 -32.71051349 129.07796928 -29 129 C-28.83918945 128.01418945 -28.67837891 127.02837891 -28.51269531 126.01269531 C-23.11766708 93.00357442 -23.11766708 93.00357442 -20.75 81.0625 C-20.59950195 80.29131836 -20.44900391 79.52013672 -20.29394531 78.72558594 C-19.70826248 75.85771428 -19.06952205 73.16950883 -17.95703125 70.45703125 C-16.68973458 67.20344102 -16.34899896 64.08989042 -15.9375 60.625 C-15.85443604 59.93253174 -15.77137207 59.24006348 -15.68579102 58.52661133 C-14.97626758 52.36694326 -14.56845758 46.20242001 -14.24609375 40.01171875 C-14 37 -14 37 -13 34 C-14.1446875 34.3403125 -14.1446875 34.3403125 -15.3125 34.6875 C-18 35 -18 35 -19.875 34 C-21.65499868 30.8355579 -20.78538739 28.44362165 -20 25 C-18.9375 22.5625 -18.9375 22.5625 -18 21 C-18.33 20.67 -18.66 20.34 -19 20 C-19.4664311 14.6360424 -19.4664311 14.6360424 -17.625 12.125 C-16 11 -16 11 -14 11 C-14 10.34 -14 9.68 -14 9 C-14.66 9 -15.32 9 -16 9 C-16.75 6.75 -16.75 6.75 -17 4 C-12.63551442 -1.87280045 -6.66807934 -0.67797457 0 0 Z " fill="#F3A506" transform="translate(157,7)"/>
<path d="M0 0 C3.66732514 0.91683128 6.90095809 2.46820553 10.30078125 4.11328125 C13.61538269 5.202159 16.21240294 5.01874876 19.6875 4.8125 C28.08759606 4.66249828 33.19234594 7.46156396 40 12 C42.01143067 12.59524807 44.03403264 13.15318381 46.0625 13.6875 C55.37458598 16.50808729 62.70705107 21.0019693 67.80859375 29.4609375 C69.9718396 34.07113357 71.52935198 38.91847215 72 44 C71.0625 46.35546875 71.0625 46.35546875 70 48 C69.21109375 47.51080078 69.21109375 47.51080078 68.40625 47.01171875 C65.31578051 45.71231681 62.84394258 45.77031724 59.5 45.8125 C58.3759375 45.81894531 57.251875 45.82539062 56.09375 45.83203125 C52.81479276 45.91201277 52.81479276 45.91201277 49 47 C53.29 47 57.58 47 62 47 C60.90550944 52.47245282 60.21096226 53.60736239 56 57 C52.44921875 58.36328125 52.44921875 58.36328125 48.6875 59.3125 C46.80611328 59.80169922 46.80611328 59.80169922 44.88671875 60.30078125 C43.93410156 60.53152344 42.98148437 60.76226562 42 61 C42.2165625 62.19753906 42.433125 63.39507812 42.65625 64.62890625 C45.58695853 81.46570505 47.95488465 99.60535823 38.5 114.94140625 C32.76352049 122.81412683 25.50621318 128.89517135 15.6875 130.5625 C13 130 13 130 10.8125 128 C6.46369674 124.90751768 2.16825035 125.24756355 -3 126 C-6.67943412 127.80626766 -8.50473423 129.30662792 -10.875 132.625 C-13.52072552 135.58198734 -15.34351485 135.74100103 -19.11328125 136.47265625 C-21.83342683 137.23294539 -23.13643919 138.94365704 -25 141 C-27.5 142.3125 -27.5 142.3125 -30 143 C-30.61101562 142.80921875 -31.22203125 142.6184375 -31.8515625 142.421875 C-34.75944496 141.85087263 -36.19358516 142.72719573 -38.875 143.9375 C-45.79634023 146.60384181 -54.01546033 147.85450206 -61.15234375 145.19921875 C-63.82073636 143.50945424 -65.2488517 141.62672245 -67 139 C-66.625 135.3125 -66.625 135.3125 -66 132 C-61.77095249 129.9726181 -58.17593087 129.69743261 -53.51171875 129.5859375 C-52.4569207 129.55688828 -52.4569207 129.55688828 -51.3808136 129.5272522 C-49.14982981 129.46779817 -46.91879346 129.42120951 -44.6875 129.375 C-43.16859814 129.33678863 -41.64971722 129.29773508 -40.13085938 129.2578125 C-36.42076533 129.16212584 -32.71051349 129.07796928 -29 129 C-28.83918945 128.01418945 -28.67837891 127.02837891 -28.51269531 126.01269531 C-23.11766708 93.00357442 -23.11766708 93.00357442 -20.75 81.0625 C-20.59950195 80.29131836 -20.44900391 79.52013672 -20.29394531 78.72558594 C-19.70826248 75.85771428 -19.06952205 73.16950883 -17.95703125 70.45703125 C-16.68973458 67.20344102 -16.34899896 64.08989042 -15.9375 60.625 C-15.85443604 59.93253174 -15.77137207 59.24006348 -15.68579102 58.52661133 C-14.97626758 52.36694326 -14.56845758 46.20242001 -14.24609375 40.01171875 C-14 37 -14 37 -13 34 C-13.763125 34.226875 -14.52625 34.45375 -15.3125 34.6875 C-18 35 -18 35 -19.875 34 C-21.65499868 30.8355579 -20.78538739 28.44362165 -20 25 C-18.9375 22.5625 -18.9375 22.5625 -18 21 C-18.33 20.67 -18.66 20.34 -19 20 C-19.4664311 14.6360424 -19.4664311 14.6360424 -17.625 12.125 C-16 11 -16 11 -14 11 C-14 10.34 -14 9.68 -14 9 C-14.66 9 -15.32 9 -16 9 C-16.75 6.75 -16.75 6.75 -17 4 C-12.63551442 -1.87280045 -6.66807934 -0.67797457 0 0 Z " fill="#CBC8C6" transform="translate(157,7)"/>
<path d="M0 0 C0.99 1.485 0.99 1.485 2 3 C4.05925139 3.72382467 4.05925139 3.72382467 6 4 C9.38874558 21.60937437 12.47320233 40.76463462 2.5 56.94140625 C-3.23647951 64.81412683 -10.49378682 70.89517135 -20.3125 72.5625 C-23 72 -23 72 -25.1875 70 C-29.53630326 66.90751768 -33.83174965 67.24756355 -39 68 C-42.67943412 69.80626766 -44.50473423 71.30662792 -46.875 74.625 C-49.52072552 77.58198734 -51.34351485 77.74100103 -55.11328125 78.47265625 C-57.83342683 79.23294539 -59.13643919 80.94365704 -61 83 C-63.5 84.3125 -63.5 84.3125 -66 85 C-66.91652344 84.71382812 -66.91652344 84.71382812 -67.8515625 84.421875 C-70.75944496 83.85087263 -72.19358516 84.72719573 -74.875 85.9375 C-81.79634023 88.60384181 -90.01546033 89.85450206 -97.15234375 87.19921875 C-99.82073636 85.50945424 -101.2488517 83.62672245 -103 81 C-102.625 77.3125 -102.625 77.3125 -102 74 C-97.77095249 71.9726181 -94.17593087 71.69743261 -89.51171875 71.5859375 C-88.80852005 71.56657135 -88.10532135 71.5472052 -87.3808136 71.5272522 C-85.14982981 71.46779817 -82.91879346 71.42120951 -80.6875 71.375 C-79.16859814 71.33678863 -77.64971722 71.29773508 -76.13085938 71.2578125 C-72.42076533 71.16212584 -68.71051349 71.07796928 -65 71 C-64.82871582 69.96705811 -64.65743164 68.93411621 -64.48095703 67.86987305 C-63.83695424 63.9875695 -63.19182843 60.10545323 -62.54638672 56.22338867 C-62.26874306 54.55254004 -61.99139212 52.88164274 -61.71435547 51.21069336 C-60.20829753 42.12813095 -58.69500404 33.04970488 -57 24 C-55.02 23.67 -53.04 23.34 -51 23 C-50.97287934 24.43739513 -50.95354933 25.87493863 -50.9375 27.3125 C-50.92589844 28.11300781 -50.91429687 28.91351563 -50.90234375 29.73828125 C-51 32 -51 32 -52 35 C-51.14535156 34.3503125 -50.29070312 33.700625 -49.41015625 33.03125 C-48.29436558 32.18737471 -47.17847501 31.3436315 -46.0625 30.5 C-45.49853516 30.07074219 -44.93457031 29.64148438 -44.35351562 29.19921875 C-40.11328125 26 -40.11328125 26 -39 26 C-39 28.97 -39 31.94 -39 35 C-38.44570312 34.57847656 -37.89140625 34.15695313 -37.3203125 33.72265625 C-36.59585938 33.17480469 -35.87140625 32.62695312 -35.125 32.0625 C-34.40570313 31.51722656 -33.68640625 30.97195312 -32.9453125 30.41015625 C-31 29 -31 29 -29 28 C-29 31.63 -29 35.26 -29 39 C-27.081875 37.453125 -27.081875 37.453125 -25.125 35.875 C-24.40570313 35.29492188 -23.68640625 34.71484375 -22.9453125 34.1171875 C-19.76413668 30.65494394 -19.0083559 27.39209345 -18.98046875 22.74609375 C-19.04878906 21.65425781 -19.11710937 20.56242187 -19.1875 19.4375 C-19.29053055 13.37930377 -19.29053055 13.37930377 -16.75 10.0625 C-15.38875 9.0415625 -15.38875 9.0415625 -14 8 C-13.278125 6.906875 -12.55625 5.81375 -11.8125 4.6875 C-11.214375 3.800625 -10.61625 2.91375 -10 2 C-9.34 2 -8.68 2 -8 2 C-7.01 5.465 -7.01 5.465 -6 9 C-3.03134491 6.45543849 -1.6380249 3.51005335 0 0 Z " fill="#44B14A" transform="translate(193,65)"/>
<path d="M0 0 C3.66450784 0.91612696 6.89565757 2.46570145 10.29296875 4.109375 C13.63441428 5.20872504 16.30689343 5.05279262 19.8125 4.875 C26.12593234 4.75550286 29.7134696 5.61662055 35 9 C35 9.66 35 10.32 35 11 C34.32195312 11.02578125 33.64390625 11.0515625 32.9453125 11.078125 C25.94946364 11.50446482 20.32447415 13.0125033 14 16 C12.90365234 16.50080078 12.90365234 16.50080078 11.78515625 17.01171875 C9.4479733 18.30560778 9.0049125 19.55949821 8 22 C7.6596875 22.55558594 7.319375 23.11117188 6.96875 23.68359375 C4.57902139 29.3977432 5.03618752 37.90358886 6.86328125 43.7734375 C7.55397415 45.24524129 8.27582508 46.70303005 9.03515625 48.140625 C10.38726928 50.74631651 10.86422388 53.08081336 11 56 C10.0625 58.375 10.0625 58.375 9 60 C9.66 60 10.32 60 11 60 C14.01704885 63.1999003 15.49890042 65.61537866 16 70 C16.99 70.33 17.98 70.66 19 71 C18.34 71 17.68 71 17 71 C17.24169922 71.85464844 17.24169922 71.85464844 17.48828125 72.7265625 C18.77950618 78.46314957 18.64252305 84.71495389 16 90 C13.85038152 92.54846336 11.60980533 94.91954197 9 97 C8.34 97 7.68 97 7 97 C6.505 92.05 6.505 92.05 6 87 C4.88625 87.99 3.7725 88.98 2.625 90 C-0.75 93 -0.75 93 -3 93 C-3.33 90.36 -3.66 87.72 -4 85 C-4.69867188 85.5775 -5.39734375 86.155 -6.1171875 86.75 C-7.02726563 87.4925 -7.93734375 88.235 -8.875 89 C-9.77992188 89.7425 -10.68484375 90.485 -11.6171875 91.25 C-14 93 -14 93 -16 93 C-16 89.37 -16 85.74 -16 82 C-17.98 82.495 -17.98 82.495 -20 83 C-20.30691001 78.08943982 -19.68064744 75.14186496 -17.796875 70.5390625 C-14.7837453 60.93840416 -14.76640071 50.00373616 -14.24609375 40.01171875 C-14 37 -14 37 -13 34 C-13.763125 34.226875 -14.52625 34.45375 -15.3125 34.6875 C-18 35 -18 35 -19.875 34 C-21.65499868 30.8355579 -20.78538739 28.44362165 -20 25 C-18.9375 22.5625 -18.9375 22.5625 -18 21 C-18.33 20.67 -18.66 20.34 -19 20 C-19.4664311 14.6360424 -19.4664311 14.6360424 -17.625 12.125 C-16 11 -16 11 -14 11 C-14 10.34 -14 9.68 -14 9 C-14.66 9 -15.32 9 -16 9 C-16.75 6.75 -16.75 6.75 -17 4 C-12.63551442 -1.87280045 -6.66807934 -0.67797457 0 0 Z " fill="#959795" transform="translate(157,7)"/>
<path d="M0 0 C2.75 2 2.75 2 5 4 C8.66714849 4.25063732 8.66714849 4.25063732 12 4 C13 5 13 5 13.1875 7.875 C13 11 13 11 11 14 C6.58181876 15.01400881 4.2423015 15.52863894 0.0625 13.75 C-2 12 -2 12 -3 9 C-6.63 9.33 -10.26 9.66 -14 10 C-13.505 10.99 -13.505 10.99 -13 12 C-15.70879335 13.35439668 -18.00933268 13.06501451 -21 13 C-21 12.34 -21 11.68 -21 11 C-22.32 11.33 -23.64 11.66 -25 12 C-24.505 13.0725 -24.01 14.145 -23.5 15.25 C-22.11346089 18.25416808 -22 19.45934895 -22 23 C-22.66 23 -23.32 23 -24 23 C-24.06058594 23.60714844 -24.12117188 24.21429688 -24.18359375 24.83984375 C-25 27 -25 27 -27.16015625 28.37890625 C-54.73602913 39.62451793 -87.68096129 39.23869458 -117 39 C-117.91156249 36.01697154 -118.01974352 33.84661679 -117.51171875 30.77734375 C-117.38216797 29.99166016 -117.25261719 29.20597656 -117.11914062 28.39648438 C-116.97669922 27.58501953 -116.83425781 26.77355469 -116.6875 25.9375 C-116.55666016 25.12216797 -116.42582031 24.30683594 -116.29101562 23.46679688 C-115.63474598 19.60843864 -115.21866196 17.32799294 -113 14 C-110.15310923 13.51714388 -107.50212995 13.22573377 -104.6328125 13.05859375 C-103.80167938 13.00421646 -102.97054626 12.94983917 -102.11422729 12.89381409 C-100.35444569 12.78468282 -98.59415659 12.6834908 -96.83349609 12.58959961 C-94.13966677 12.43832363 -91.45217174 12.23893031 -88.76171875 12.03710938 C-87.05225472 11.93712941 -85.34261935 11.84002885 -83.6328125 11.74609375 C-82.82852814 11.68078964 -82.02424377 11.61548553 -81.19558716 11.54820251 C-78.91064453 11.45483398 -78.91064453 11.45483398 -75 12 C-72.57568359 14.93139648 -72.57568359 14.93139648 -71 18 C-66.0292467 21.64381492 -58.81532681 20.51772061 -53 20 C-48.86358107 18.96364232 -44.94304471 17.61765937 -41 16 C-41 16.66 -41 17.32 -41 18 C-40.37351562 17.71125 -39.74703125 17.4225 -39.1015625 17.125 C-38.28429687 16.75375 -37.46703125 16.3825 -36.625 16 C-35.81289062 15.62875 -35.00078125 15.2575 -34.1640625 14.875 C-32 14 -32 14 -30 14 C-29.67 13.01 -29.34 12.02 -29 11 C-27.109375 10.26171875 -27.109375 10.26171875 -24.75 9.6875 C-19.72312019 8.18979254 -18.08471917 6.14233717 -15 2 C-10.43305246 -0.94865961 -5.24098317 -0.67372878 0 0 Z " fill="#FCB833" transform="translate(165,132)"/>
<path d="M0 0 C1.42691334 5.15324754 0.24138239 7.57449458 -2.1875 12.15625 C-5.05411663 16.65387264 -8.48198468 20.6216155 -11.98828125 24.62890625 C-14.10782589 26.6088351 -14.10782589 26.6088351 -14 28 C-9.87582769 28.60137791 -5.74996523 29.1887882 -1.62207031 29.76391602 C-0.22114964 29.96103129 1.17926176 30.16180494 2.57910156 30.36645508 C13.29132195 31.95384875 13.29132195 31.95384875 24 31 C24.87462891 30.84217041 25.74925781 30.68434082 26.65039062 30.52172852 C29.77252275 29.95772549 32.88606321 29.35756904 36 28.75 C37.12325684 28.53255127 38.24651367 28.31510254 39.40380859 28.09106445 C50.95914973 25.83957315 62.48355244 23.44178838 74 21 C73.78472656 19.7315625 73.56945312 18.463125 73.34765625 17.15625 C72.98071289 14.99414062 72.98071289 14.99414062 73 13 C75.4375 10.5 75.4375 10.5 78 9 C79.88972722 12.27552719 80.43500935 15.2842957 81 19 C84.24416614 17.34026747 87.46693018 15.64250755 90.6875 13.9375 C91.59951172 13.47150391 92.51152344 13.00550781 93.45117188 12.52539062 C99.35164263 9.3713208 102.38206944 6.5888413 106 1 C109.125 0.375 109.125 0.375 112 1 C113.875 2.5 113.875 2.5 115 4 C112.16729867 6.56713558 109.99225408 8.00264818 106.34375 9.25 C101.39615726 11.03795218 97.60553486 13.96009343 93.5 17.1875 C92.77296875 17.74630859 92.0459375 18.30511719 91.296875 18.88085938 C89.52427918 20.24529168 87.75910966 21.61825393 86 23 C89.87787463 27.14531426 92.43894937 28.71668062 98 30 C99 31 99 31 99.0625 34.0625 C99.041875 35.031875 99.02125 36.00125 99 37 C93.89709416 35.69460548 91.66591273 33.66591273 88 30 C84.44415606 27.65075466 82.52195166 26.74646061 78.27282715 27.45431519 C74.89180068 28.43151004 71.58629699 29.54883203 68.265625 30.71484375 C66.34878445 31.34283771 64.4318927 31.97069785 62.51301479 32.5924387 C60.48141666 33.25108734 58.45224563 33.91689433 56.42300415 34.58276367 C30.97829706 42.87984427 8.24186437 47.65178333 -18.68736267 43.53785706 C-23.08233504 42.85991935 -23.08233504 42.85991935 -27 45 C-27.33 44.34 -27.66 43.68 -28 43 C-30.58755076 42.56186849 -30.58755076 42.56186849 -33.72265625 42.4375 C-34.90150391 42.36273438 -36.08035156 42.28796875 -37.29492188 42.2109375 C-38.53822266 42.14132813 -39.78152344 42.07171875 -41.0625 42 C-55.80323892 41.15633291 -55.80323892 41.15633291 -63 39 C-63 38.34 -63 37.68 -63 37 C-62.13217896 36.91866821 -62.13217896 36.91866821 -61.24682617 36.83569336 C-49.45907763 35.6546902 -40.51757067 34.42773372 -31 27 C-28.58821812 25.31515856 -26.15614627 23.66238375 -23.72119141 22.01123047 C-20.47220052 19.80714731 -17.24380118 17.57372827 -14.01660156 15.33789062 C-12 14 -12 14 -8.9296875 12.359375 C-7.97449219 11.68648437 -7.97449219 11.68648437 -7 11 C-7 9.68 -7 8.36 -7 7 C-7 5.68 -7 4.36 -7 3 C-4.59140121 0.97170628 -3.16955691 0 0 0 Z " fill="#FBB938" transform="translate(318,99)"/>
<path d="M0 0 C0 0.66 0 1.32 0 2 C0.763125 2.2475 1.52625 2.495 2.3125 2.75 C5.2364045 4.10995558 6.30004356 5.31585826 8 8 C2.88634986 6.9318153 -2.07227969 5.76892524 -7 4 C-7.99 7.465 -7.99 7.465 -9 11 C-11.31 11.33 -13.62 11.66 -16 12 C-15.25 5.375 -15.25 5.375 -13 2 C-21.88753809 -1.71246487 -28.92474567 -2.36102175 -38.4375 -1.3125 C-39.56220703 -1.20744141 -40.68691406 -1.10238281 -41.84570312 -0.99414062 C-44.10392517 -0.78271605 -46.36136979 -0.56280817 -48.61791992 -0.33422852 C-56.50716392 0.44541308 -64.38074657 1.14966213 -72.3125 1.0625 C-73.40175781 1.05347656 -74.49101562 1.04445312 -75.61328125 1.03515625 C-76.40089844 1.02355469 -77.18851563 1.01195312 -78 1 C-75.88013657 4.17979514 -74.65936028 5.78106513 -70.9765625 7.00390625 C-69.87054688 7.18824219 -68.76453125 7.37257812 -67.625 7.5625 C-62.46214165 8.58461819 -58.95065157 9.50085146 -55 13 C-55 13.66 -55 14.32 -55 15 C-55.66 15 -56.32 15 -57 15 C-57 16.32 -57 17.64 -57 19 C-59.375 18.75 -59.375 18.75 -62 18 C-63.375 16.0625 -63.375 16.0625 -64 14 C-63.67 13.34 -63.34 12.68 -63 12 C-64.60407328 11.97291433 -66.2082785 11.95356517 -67.8125 11.9375 C-69.15248047 11.92009766 -69.15248047 11.92009766 -70.51953125 11.90234375 C-73.13413791 11.88990033 -73.13413791 11.88990033 -76 13 C-78.51698632 11.92745123 -80.66805545 10.45196548 -83 9 C-83.37125 9.969375 -83.7425 10.93875 -84.125 11.9375 C-86 15 -86 15 -89.1875 15.875 C-90.5796875 15.936875 -90.5796875 15.936875 -92 16 C-91.125 8.375 -91.125 8.375 -90 5 C-97.0561175 0.29592167 -109.52362292 5.09805819 -117.375 6.5625 C-119.86138296 7.02534975 -122.34834074 7.48512513 -124.8359375 7.94140625 C-125.92438965 8.14451416 -127.0128418 8.34762207 -128.13427734 8.55688477 C-131 9 -131 9 -135 9 C-135 8.34 -135 7.68 -135 7 C-132.36 7 -129.72 7 -127 7 C-126.77828125 6.40058594 -126.5565625 5.80117187 -126.328125 5.18359375 C-121.47629196 -2.79339058 -105.35227601 -6.43343542 -96.62011719 -8.58691406 C-94.04408976 -9.17359314 -91.46376187 -9.7224255 -88.875 -10.25 C-88.07642578 -10.41322754 -87.27785156 -10.57645508 -86.45507812 -10.74462891 C-59.24642356 -15.94172546 -23.4473849 -17.01084787 0 0 Z " fill="#FDBA38" transform="translate(291,162)"/>
<path d="M0 0 C0.845625 0.00644531 1.69125 0.01289062 2.5625 0.01953125 C4.83252477 0.17595924 6.81961604 0.55660186 9 1.1875 C9 1.8475 9 2.5075 9 3.1875 C9.66 3.1875 10.32 3.1875 11 3.1875 C14.01704885 6.3874003 15.49890042 8.80287866 16 13.1875 C16.99 13.5175 17.98 13.8475 19 14.1875 C18.34 14.1875 17.68 14.1875 17 14.1875 C17.16113281 14.75726563 17.32226562 15.32703125 17.48828125 15.9140625 C18.77950618 21.65064957 18.64252305 27.90245389 16 33.1875 C13.85038152 35.73596336 11.60980533 38.10704197 9 40.1875 C8.34 40.1875 7.68 40.1875 7 40.1875 C6.505 35.2375 6.505 35.2375 6 30.1875 C4.88625 31.1775 3.7725 32.1675 2.625 33.1875 C-0.75 36.1875 -0.75 36.1875 -3 36.1875 C-3.33 33.5475 -3.66 30.9075 -4 28.1875 C-5.04800781 29.05375 -5.04800781 29.05375 -6.1171875 29.9375 C-7.48230469 31.05125 -7.48230469 31.05125 -8.875 32.1875 C-9.77992188 32.93 -10.68484375 33.6725 -11.6171875 34.4375 C-14 36.1875 -14 36.1875 -16 36.1875 C-16 32.5575 -16 28.9275 -16 25.1875 C-17.32 25.5175 -18.64 25.8475 -20 26.1875 C-20.69727533 17.99451489 -17.73884273 11.96901331 -12.5 5.75 C-8.71130348 1.48771642 -5.7393896 -0.09623976 0 0 Z " fill="#93CD8B" transform="translate(157,63.8125)"/>
<path d="M0 0 C9.14672776 -0.73763934 14.7629102 2.14811263 22.25 7.1875 C29.04719889 14.13918068 32.87532712 22.15084232 33 32 C32.34 32.66 31.68 33.32 31 34 C30.4740625 33.67386719 29.948125 33.34773438 29.40625 33.01171875 C26.31578051 31.71231681 23.84394258 31.77031724 20.5 31.8125 C19.3759375 31.81894531 18.251875 31.82539062 17.09375 31.83203125 C13.81479276 31.91201277 13.81479276 31.91201277 10 33 C14.29 33 18.58 33 23 33 C21.89876275 38.50618624 21.36580121 39.7033746 17 43 C8.45489443 45.72744722 8.45489443 45.72744722 5 44 C5.0721875 43.12859375 5.144375 42.2571875 5.21875 41.359375 C7.11209224 21.0415896 7.11209224 21.0415896 1 2 C0.67 1.34 0.34 0.68 0 0 Z " fill="#ED71A5" transform="translate(196,21)"/>
<path d="M0 0 C2.03435937 2.03435937 2.97443004 3.15619137 3.0625 6.0625 C1.41827173 9.0607986 -0.90211078 9.76084431 -4 11 C-4.99 11 -5.98 11 -7 11 C-7 11.66 -7 12.32 -7 13 C-20.07794382 16.4015864 -32.90976053 17.93679114 -46.38134766 18.82080078 C-48.51018501 18.96648105 -50.63655758 19.147851 -52.76171875 19.33984375 C-64.47241 20.39135723 -76.25376637 20.08992994 -88 20 C-88 17.69 -88 15.38 -88 13 C-87.37061523 12.98541748 -86.74123047 12.97083496 -86.09277344 12.95581055 C-72.13705468 12.60305345 -58.22846399 11.91686578 -44.31286621 10.81265259 C-42.74308664 10.68864089 -41.17301439 10.5682741 -39.60266113 10.45175171 C-24.73952831 9.40678433 -24.73952831 9.40678433 -11 4 C-10.34 3.01 -9.68 2.02 -9 1 C-5.71320024 -0.72989461 -3.46272868 -1.61594005 0 0 Z " fill="#F2A506" transform="translate(137,147)"/>
<path d="M0 0 C2.75 2 2.75 2 5 4 C8.66714849 4.25063732 8.66714849 4.25063732 12 4 C13 5 13 5 13.1875 7.875 C13 11 13 11 11 14 C6.58181876 15.01400881 4.2423015 15.52863894 0.0625 13.75 C-2 12 -2 12 -3 9 C-6.63 9.33 -10.26 9.66 -14 10 C-13.505 10.99 -13.505 10.99 -13 12 C-15.70879335 13.35439668 -18.00933268 13.06501451 -21 13 C-21 12.34 -21 11.68 -21 11 C-22.32 11.33 -23.64 11.66 -25 12 C-24.505 13.0725 -24.01 14.145 -23.5 15.25 C-22.11346089 18.25416808 -22 19.45934895 -22 23 C-22.66 23 -23.32 23 -24 23 C-24.06058594 23.60714844 -24.12117188 24.21429688 -24.18359375 24.83984375 C-25 27 -25 27 -27.16015625 28.37890625 C-35.60932166 31.82452822 -44.01348459 33.6908134 -53 35 C-54.38735352 35.20520264 -54.38735352 35.20520264 -55.80273438 35.41455078 C-87.49402016 39.99872731 -87.49402016 39.99872731 -100 36 C-100 35.67 -100 35.34 -100 35 C-98.91283691 34.92483154 -97.82567383 34.84966309 -96.70556641 34.7722168 C-92.57845571 34.48452159 -88.45223898 34.18532027 -84.32617188 33.88305664 C-82.5578334 33.75503431 -80.78928133 33.62992096 -79.02050781 33.50805664 C-68.22486805 32.76194161 -57.64404 31.63001754 -46.99365234 29.69458008 C-43.01061197 28.97380374 -39.01981377 28.47144574 -35 28 C-35 27.34 -35 26.68 -35 26 C-32.03 24.68 -29.06 23.36 -26 22 C-26.49831724 18.31245243 -27.10067643 16.39509338 -30 14 C-29.67 13.01 -29.34 12.02 -29 11 C-27.109375 10.26171875 -27.109375 10.26171875 -24.75 9.6875 C-19.72312019 8.18979254 -18.08471917 6.14233717 -15 2 C-10.43305246 -0.94865961 -5.24098317 -0.67372878 0 0 Z " fill="#FEBA38" transform="translate(165,132)"/>
<path d="M0 0 C3.19215004 2.69559337 4.51488143 4.40581379 5.8125 8.375 C5.8125 13.16159166 5.41902978 16.04493055 2.4375 19.8125 C-1.40089751 23.5595071 -4.75881215 23.77678685 -9.8984375 23.7265625 C-13.84795068 23.11998198 -15.48951195 21.27040181 -18.1875 18.375 C-20.73391337 14.90261813 -20.62279792 11.58287993 -20.1875 7.375 C-18.23666841 3.31727029 -16.76114856 1.69369364 -12.8125 -0.5 C-7.65978452 -2.0991186 -4.87371119 -2.48463708 0 0 Z " fill="#FCFBF8" transform="translate(187.1875,26.625)"/>
<path d="M0 0 C3.12415222 0.66298803 5.12731484 1.48235501 8 3 C9.20703125 5.109375 9.20703125 5.109375 10 7 C9.31292969 7.30292969 8.62585938 7.60585937 7.91796875 7.91796875 C1.13767258 10.99109804 1.13767258 10.99109804 -3 17 C-3.66 17 -4.32 17 -5 17 C-5 17.66 -5 18.32 -5 19 C-5.66 19 -6.32 19 -7 19 C-9.04781517 22.77922971 -10.0459205 26.61685952 -11.12109375 30.7578125 C-12 33 -12 33 -15 35 C-17.6875 34.625 -17.6875 34.625 -20 34 C-21.19876651 28.55106131 -20.91360308 25.77830905 -18 21 C-18.33 20.67 -18.66 20.34 -19 20 C-19.4664311 14.6360424 -19.4664311 14.6360424 -17.625 12.125 C-16 11 -16 11 -14 11 C-14 10.34 -14 9.68 -14 9 C-14.66 9 -15.32 9 -16 9 C-16.75 6.75 -16.75 6.75 -17 4 C-12.62864146 -1.88204862 -6.67426729 -0.66026721 0 0 Z " fill="#E977A8" transform="translate(157,7)"/>
<path d="M0 0 C3.125 -0.625 3.125 -0.625 6 0 C7.875 1.5 7.875 1.5 9 3 C6.16729867 5.56713558 3.99225408 7.00264818 0.34375 8.25 C-4.60384274 10.03795218 -8.39446514 12.96009343 -12.5 16.1875 C-13.59054687 17.02571289 -13.59054687 17.02571289 -14.703125 17.88085938 C-16.47572082 19.24529168 -18.24089034 20.61825393 -20 22 C-16.12212537 26.14531426 -13.56105063 27.71668062 -8 29 C-7 30 -7 30 -6.9375 33.0625 C-6.958125 34.031875 -6.97875 35.00125 -7 36 C-12.10290584 34.69460548 -14.33408727 32.66591273 -18 29 C-22.24601788 26.50138208 -22.24601788 26.50138208 -27.00024414 26.23120117 C-29.15026028 26.82841365 -31.21960539 27.53894115 -33.3125 28.3125 C-39.80818336 30.48949661 -45.07986438 31.54921711 -52 31 C-51.625 29.0625 -51.625 29.0625 -51 27 C-50.34 26.67 -49.68 26.34 -49 26 C-49.66 25.34 -50.32 24.68 -51 24 C-44.73 22.68 -38.46 21.36 -32 20 C-32.33 17.36 -32.66 14.72 -33 12 C-30.5625 9.5 -30.5625 9.5 -28 8 C-26.11027278 11.27552719 -25.56499065 14.2842957 -25 18 C-21.75583386 16.34026747 -18.53306982 14.64250755 -15.3125 12.9375 C-14.40048828 12.47150391 -13.48847656 12.00550781 -12.54882812 11.52539062 C-6.64835737 8.3713208 -3.61793056 5.5888413 0 0 Z " fill="#ECA60E" transform="translate(424,100)"/>
<path d="M0 0 C1.42691334 5.15324754 0.24138239 7.57449458 -2.1875 12.15625 C-5.05411663 16.65387264 -8.48198468 20.6216155 -11.98828125 24.62890625 C-14.10782589 26.6088351 -14.10782589 26.6088351 -14 28 C-13.34926514 28.08040527 -12.69853027 28.16081055 -12.02807617 28.24365234 C-9.08012449 28.61257391 -6.13386737 28.99364069 -3.1875 29.375 C-2.16333984 29.50132812 -1.13917969 29.62765625 -0.08398438 29.7578125 C0.89892578 29.88671875 1.88183594 30.015625 2.89453125 30.1484375 C3.80050049 30.26364746 4.70646973 30.37885742 5.63989258 30.49755859 C8 31 8 31 11 33 C5.25253972 33.82719921 -0.29199417 34.13556486 -6.09375 34.09765625 C-6.92588013 34.0962413 -7.75801025 34.09482635 -8.61535645 34.09336853 C-11.2436093 34.08782167 -13.87177338 34.07527945 -16.5 34.0625 C-18.29426959 34.05747812 -20.08854054 34.05291642 -21.8828125 34.04882812 C-26.25524195 34.03786972 -30.62760598 34.02064248 -35 34 C-35.33 33.34 -35.66 32.68 -36 32 C-31.70155275 27.29637124 -26.77564627 23.91364176 -21.5 20.375 C-20.65824219 19.80265625 -19.81648438 19.2303125 -18.94921875 18.640625 C-15.64744787 16.40478015 -12.42830808 14.22821466 -8.90625 12.3515625 C-7.96265625 11.68253906 -7.96265625 11.68253906 -7 11 C-7 9.68 -7 8.36 -7 7 C-7 5.68 -7 4.36 -7 3 C-4.59140121 0.97170628 -3.16955691 0 0 0 Z " fill="#EDA60F" transform="translate(318,99)"/>
<path d="M0 0 C0.33 0.66 0.66 1.32 1 2 C1.66 2 2.32 2 3 2 C6.01704885 5.1999003 7.49890042 7.61537866 8 12 C8.99 12.33 9.98 12.66 11 13 C10.34 13 9.68 13 9 13 C9.16113281 13.56976563 9.32226562 14.13953125 9.48828125 14.7265625 C10.77950618 20.46314957 10.64252305 26.71495389 8 32 C5.85038152 34.54846336 3.60980533 36.91954197 1 39 C0.34 39 -0.32 39 -1 39 C-1.33 35.7 -1.66 32.4 -2 29 C-3.423125 30.2375 -3.423125 30.2375 -4.875 31.5 C-7.75 34 -7.75 34 -10 34 C-9.41667659 26.27096482 -6.96985729 19.54959923 -3.90234375 12.46484375 C-2.72933855 9.26066071 -2.56760348 6.2708125 -2.34375 2.890625 C-2.2303125 2.26671875 -2.116875 1.6428125 -2 1 C-1.34 0.67 -0.68 0.34 0 0 Z " fill="#A5D494" transform="translate(165,65)"/>
<path d="M0 0 C0.80982834 -0.0033284 1.61965668 -0.0066568 2.45402527 -0.01008606 C4.15920448 -0.01512323 5.86439344 -0.01749538 7.56958008 -0.01733398 C10.15007128 -0.01951612 12.73013133 -0.03769412 15.31054688 -0.05664062 C23.5173885 -0.08467996 31.39222725 -0.09082078 39.35546875 2.16796875 C40.09587402 2.37035156 40.8362793 2.57273438 41.59912109 2.78125 C48.92005821 4.87650969 55.62692585 8.67448631 62.35546875 12.16796875 C62.35546875 12.49796875 62.35546875 12.82796875 62.35546875 13.16796875 C60.70546875 13.16796875 59.05546875 13.16796875 57.35546875 13.16796875 C56.69546875 15.47796875 56.03546875 17.78796875 55.35546875 20.16796875 C53.04546875 20.49796875 50.73546875 20.82796875 48.35546875 21.16796875 C49.10546875 14.54296875 49.10546875 14.54296875 51.35546875 11.16796875 C43.35777911 8.15711545 36.00186632 6.43087726 27.48046875 5.91796875 C25.82954224 5.80630371 25.82954224 5.80630371 24.14526367 5.69238281 C6.61222424 4.62746935 -11.55123897 3.69713955 -28.9296875 6.73046875 C-31.55444875 7.15345186 -33.99157537 7.24585369 -36.64453125 7.16796875 C-34.41222893 4.93566643 -33.54669572 4.74467308 -30.5390625 4.1328125 C-29.71986328 3.96330078 -28.90066406 3.79378906 -28.05664062 3.61914062 C-26.76983398 3.36487305 -26.76983398 3.36487305 -25.45703125 3.10546875 C-24.61849609 2.93208984 -23.77996094 2.75871094 -22.91601562 2.58007812 C-15.24419681 1.0169675 -7.83107521 0.01141097 0 0 Z " fill="#F2A509" transform="translate(226.64453125,152.83203125)"/>
<path d="M0 0 C-0.25733133 3.68841579 -0.77168281 5.69319878 -3 8.6875 C-9.92965854 14.02911179 -17.27246869 14.60191066 -25.875 14.42578125 C-29 14 -29 14 -32.25 11.6875 C-32.8275 10.800625 -33.405 9.91375 -34 9 C-34.66 8.01 -35.32 7.02 -36 6 C-35.64111965 3.03923709 -35.15341979 2.15341979 -33 0 C-30.28198242 -0.3347168 -30.28198242 -0.3347168 -26.85546875 -0.44921875 C-25.62119141 -0.49240234 -24.38691406 -0.53558594 -23.11523438 -0.58007812 C-21.81908203 -0.61552734 -20.52292969 -0.65097656 -19.1875 -0.6875 C-17.90294922 -0.73455078 -16.61839844 -0.78160156 -15.29492188 -0.83007812 C-4.83051087 -1.16236812 -4.83051087 -1.16236812 0 0 Z " fill="#24AF4A" transform="translate(127,139)"/>
<path d="M0 0 C0.66 0.33 1.32 0.66 2 1 C2 1.33 2 1.66 2 2 C7.1737433 2.02501624 12.34745016 2.04300717 17.52124023 2.05493164 C19.27547826 2.05991116 21.02971224 2.0666972 22.78393555 2.07543945 C32.01001853 2.12021348 41.14949642 2.09097527 50.34619141 1.23486328 C54.27492761 0.88716832 58.0582735 0.8061446 62 1 C62.99 1.99 62.99 1.99 64 3 C50.91422591 6.4148845 38.01723479 6.54593554 24.5625 6.6875 C22.36651703 6.72074544 20.17055261 6.7552415 17.97460938 6.79101562 C12.64986737 6.8750801 7.32510493 6.9437664 2 7 C2.63091553 7.0501123 3.26183105 7.10022461 3.91186523 7.15185547 C6.75463751 7.38313719 9.59597655 7.62886933 12.4375 7.875 C13.43072266 7.95363281 14.42394531 8.03226563 15.44726562 8.11328125 C16.39150391 8.19707031 17.33574219 8.28085938 18.30859375 8.3671875 C19.18314209 8.44050293 20.05769043 8.51381836 20.95874023 8.58935547 C21.63235596 8.72486816 22.30597168 8.86038086 23 9 C23.495 9.99 23.495 9.99 24 11 C21.04937843 11.54895285 18.31943831 12.0074288 15.3125 11.9375 C12.7200973 11.80236652 12.7200973 11.80236652 10 14 C9.505 13.01 9.505 13.01 9 12 C6.41244924 11.56186849 6.41244924 11.56186849 3.27734375 11.4375 C2.09849609 11.36273438 0.91964844 11.28796875 -0.29492188 11.2109375 C-1.53822266 11.14132813 -2.78152344 11.07171875 -4.0625 11 C-18.80323892 10.15633291 -18.80323892 10.15633291 -26 8 C-26 7.34 -26 6.68 -26 6 C-25.39003174 5.92483154 -24.78006348 5.84966309 -24.15161133 5.7722168 C-21.37025437 5.42259825 -18.59151788 5.05523048 -15.8125 4.6875 C-14.37293945 4.51057617 -14.37293945 4.51057617 -12.90429688 4.33007812 C-7.86020375 3.64938736 -4.27821796 2.92359183 0 0 Z " fill="#FCBC36" transform="translate(281,130)"/>
<path d="M0 0 C1.17900879 0.00491455 2.35801758 0.0098291 3.57275391 0.01489258 C21.44218528 0.25177491 39.1435876 2.53431845 54 13.3125 C54 13.9725 54 14.6325 54 15.3125 C54.763125 15.56 55.52625 15.8075 56.3125 16.0625 C59.2364045 17.42245558 60.30004356 18.62835826 62 21.3125 C60.5608866 21.02890113 59.12374482 20.73528601 57.6875 20.4375 C56.88699219 20.27507812 56.08648437 20.11265625 55.26171875 19.9453125 C53 19.3125 53 19.3125 50 17.3125 C50.495 16.8175 50.495 16.8175 51 16.3125 C36.76609872 8.82637036 24.55675849 5.28286893 8.375 4.99609375 C7.38749756 4.97531265 6.39999512 4.95453156 5.38256836 4.93312073 C2.25511039 4.86819247 -0.87242527 4.8090063 -4 4.75 C-6.13151817 4.70676072 -8.26302873 4.66314478 -10.39453125 4.61914062 C-15.59627412 4.51256997 -20.79809277 4.4107026 -26 4.3125 C-20.22992267 -1.45757733 -7.6182775 -0.0377793 0 0 Z " fill="#FDB938" transform="translate(237,148.6875)"/>
<path d="M0 0 C2.75 2 2.75 2 5 4 C8.66714849 4.25063732 8.66714849 4.25063732 12 4 C13 5 13 5 13.1875 7.875 C13 11 13 11 11 14 C6.58181876 15.01400881 4.2423015 15.52863894 0.0625 13.75 C-2 12 -2 12 -3 9 C-8.94 9.33 -14.88 9.66 -21 10 C-15.16237356 1.24356034 -10.44515591 -1.66865778 0 0 Z " fill="#DB73A0" transform="translate(165,132)"/>
<path d="M0 0 C0.90985884 14.62513842 -3.66474795 27.07976571 -10.5 39.7890625 C-13.19103342 44.85004012 -14.72045258 48.23637934 -14 54 C-13.67 54.66 -13.34 55.32 -13 56 C-16.3 55.67 -19.6 55.34 -23 55 C-23 55.66 -23 56.32 -23 57 C-24.64453125 58.1484375 -24.64453125 58.1484375 -26.8125 59.375 C-29.42347858 60.91868383 -30.88007764 61.83566195 -32.6875 64.3125 C-33.120625 64.869375 -33.55375 65.42625 -34 66 C-36.6875 66.25 -36.6875 66.25 -39 66 C-36.45427641 63.44506945 -33.90044662 60.903055 -31.31640625 58.38671875 C-26.05730515 53.2320537 -21.08574336 48.15585334 -17 42 C-16.34128906 41.03449219 -15.68257812 40.06898437 -15.00390625 39.07421875 C-7.9615055 28.28448548 -4.23438152 18.66056117 -5.25 5.6796875 C-5 3 -5 3 -3.0625 1.1328125 C-1 0 -1 0 0 0 Z " fill="#13A045" transform="translate(179,75)"/>
<path d="M0 0 C3.45475947 0.98479276 6.45273477 2.17874911 9.49609375 4.05859375 C18.99866023 9.85829362 27.30262982 12.20764264 38.41967773 13.12670898 C39.36141846 13.20606689 40.30315918 13.2854248 41.2734375 13.3671875 C42.53293213 13.44622314 42.53293213 13.44622314 43.81787109 13.52685547 C46.40131977 14.08701697 47.34178847 14.98957816 49 17 C47.3125 18.625 47.3125 18.625 45 20 C42.25 19.1875 42.25 19.1875 40 18 C40 17.34 40 16.68 40 16 C39.02389771 16.05329468 39.02389771 16.05329468 38.02807617 16.10766602 C35.08149989 16.26521303 32.13454327 16.41395582 29.1875 16.5625 C28.16333984 16.61857422 27.13917969 16.67464844 26.08398438 16.73242188 C25.10107422 16.78076172 24.11816406 16.82910156 23.10546875 16.87890625 C21.74651489 16.94960327 21.74651489 16.94960327 20.36010742 17.02172852 C18 17 18 17 15 16 C15 15.34 15 14.68 15 14 C14.01 13.67 13.02 13.34 12 13 C12 12.34 12 11.68 12 11 C9.525 10.01 9.525 10.01 7 9 C7 8.34 7 7.68 7 7 C6.4225 6.731875 5.845 6.46375 5.25 6.1875 C2.9674132 4.98280141 1.0262058 3.59201885 -1 2 C-0.67 1.34 -0.34 0.68 0 0 Z " fill="#EBA715" transform="translate(284,155)"/>
<path d="M0 0 C1.32 0 2.64 0 4 0 C4.103125 0.61875 4.20625 1.2375 4.3125 1.875 C4.87525373 4.36526484 4.87525373 4.36526484 8 6 C8.34057617 8.52197266 8.34057617 8.52197266 8.29296875 11.6640625 C8.28330078 12.78554688 8.27363281 13.90703125 8.26367188 15.0625 C8.23853516 16.238125 8.21339844 17.41375 8.1875 18.625 C8.17396484 19.80835937 8.16042969 20.99171875 8.14648438 22.2109375 C8.11103916 25.14107539 8.06162769 28.07031459 8 31 C8.66 31.33 9.32 31.66 10 32 C10 32.33 10 32.66 10 33 C14.29 33 18.58 33 23 33 C21.89876275 38.50618624 21.36580121 39.7033746 17 43 C8.45489443 45.72744722 8.45489443 45.72744722 5 44 C5.0721875 43.12859375 5.144375 42.2571875 5.21875 41.359375 C7.11209224 21.0415896 7.11209224 21.0415896 1 2 C0.67 1.34 0.34 0.68 0 0 Z " fill="#DD7CA1" transform="translate(196,21)"/>
<path d="M0 0 C1.32 0 2.64 0 4 0 C4 0.66 4 1.32 4 2 C4.928125 1.938125 5.85625 1.87625 6.8125 1.8125 C10 2 10 2 11.75 3.5 C12.36875 4.2425 12.36875 4.2425 13 5 C13.66 5 14.32 5 15 5 C14.67 3.35 14.34 1.7 14 0 C14.52851563 0.46535156 15.05703125 0.93070313 15.6015625 1.41015625 C18.51388311 3.34063588 20.94983188 3.79478197 24.375 4.4375 C29.48396613 5.52940502 33.07916731 6.52726248 37 10 C37 10.66 37 11.32 37 12 C36.34 12 35.68 12 35 12 C35 13.32 35 14.64 35 16 C32.625 15.75 32.625 15.75 30 15 C28.625 13.0625 28.625 13.0625 28 11 C28.33 10.34 28.66 9.68 29 9 C27.39592672 8.97291433 25.7917215 8.95356517 24.1875 8.9375 C23.29417969 8.92589844 22.40085938 8.91429687 21.48046875 8.90234375 C18.86586209 8.88990033 18.86586209 8.88990033 16 10 C13.48301368 8.92745123 11.33194455 7.45196548 9 6 C8.62875 6.969375 8.2575 7.93875 7.875 8.9375 C6 12 6 12 2.8125 12.875 C1.4203125 12.936875 1.4203125 12.936875 0 13 C0.875 5.375 0.875 5.375 2 2 C1.34 1.34 0.68 0.68 0 0 Z " fill="#E6A71E" transform="translate(199,165)"/>
<path d="M0 0 C0.66 0 1.32 0 2 0 C6.25588717 15.88864545 7.44835706 33.72136358 -0.1875 48.8125 C-3.66803057 54.54638319 -8.43654903 59.29103269 -14 63 C-16.48046875 63.4140625 -16.48046875 63.4140625 -19.1875 63.625 C-20.08855469 63.69976562 -20.98960937 63.77453125 -21.91796875 63.8515625 C-22.60503906 63.90054688 -23.29210937 63.94953125 -24 64 C-21.43099663 61.97576297 -18.97331862 60.41559226 -16 59.0625 C-12.68604822 57.43921493 -10.42218042 55.83979773 -8 53 C-7.154375 52.113125 -6.30875 51.22625 -5.4375 50.3125 C-2.41912376 46.65329927 -1.16894562 42.5415117 0 38 C0.18820313 37.28585938 0.37640625 36.57171875 0.5703125 35.8359375 C1.20904516 31.62030193 1.14379558 27.44469993 1.125 23.1875 C1.12886719 22.32318359 1.13273437 21.45886719 1.13671875 20.56835938 C1.35377949 11.5317746 1.35377949 11.5317746 -1 3 C-0.67 2.01 -0.34 1.02 0 0 Z " fill="#189A4B" transform="translate(197,71)"/>
<path d="M0 0 C-9.17141564 9.17141564 -30.72763561 9.62052689 -43 11 C-44.55074219 11.19722656 -44.55074219 11.19722656 -46.1328125 11.3984375 C-60.80587481 13.05869226 -75.42252667 11.92987827 -90 10 C-90 9.67 -90 9.34 -90 9 C-89.33760315 8.99191315 -88.6752063 8.98382629 -87.99273682 8.97549438 C-81.04852301 8.88890169 -74.10457689 8.7893796 -67.16064453 8.68261719 C-64.57507857 8.64452295 -61.98946314 8.60963736 -59.40380859 8.578125 C-55.67006848 8.53204722 -51.93666328 8.4741257 -48.203125 8.4140625 C-47.06200256 8.40251129 -45.92088013 8.39096008 -44.74517822 8.37905884 C-37.33370694 8.2452114 -30.27421818 7.42379727 -23 6 C-23 5.01 -23 4.02 -23 3 C-20.29273634 2.4935186 -17.58442876 1.994649 -14.875 1.5 C-13.73417969 1.28537109 -13.73417969 1.28537109 -12.5703125 1.06640625 C-8.31957086 0.29687544 -4.34140803 -0.16644376 0 0 Z " fill="#F1AB1A" transform="translate(365,127)"/>
<path d="M0 0 C-0.94868548 3.51013628 -1.59551631 4.7517941 -4.75 6.6875 C-12.62604284 9.86820961 -19.48037053 11.03797657 -28 10 C-30.69880425 8.59578657 -31.36107343 7.64749676 -33 5 C-33 4.34 -33 3.68 -33 3 C-31.75605469 3.03480469 -30.51210937 3.06960937 -29.23046875 3.10546875 C-20.81499885 3.26782508 -13.09961511 3.41379251 -5.03125 0.65625 C-3 0 -3 0 0 0 Z " fill="#189F40" transform="translate(126,143)"/>
<path d="M0 0 C0.495 1.485 0.495 1.485 1 3 C2.98 3 4.96 3 7 3 C3.45606766 5.36262156 -0.14784206 6.42597496 -4.18359375 7.63671875 C-4.99433853 7.88041702 -5.80508331 8.1241153 -6.64039612 8.37519836 C-8.36016158 8.88844008 -10.08088972 9.39846535 -11.80249023 9.90551758 C-13.54584428 10.42288652 -15.28649814 10.94945138 -17.02416992 11.4855957 C-36.6120217 17.52915321 -36.6120217 17.52915321 -46 15 C-46.99 14.34 -47.98 13.68 -49 13 C-48.27111572 12.91024902 -47.54223145 12.82049805 -46.79125977 12.72802734 C-22.32572406 9.83667839 -22.32572406 9.83667839 0 0 Z " fill="#EFA512" transform="translate(371,128)"/>
<path d="M0 0 C8.42899817 0.1590377 15.0418951 3.97779623 20.9296875 9.9609375 C26.14922776 16.53080658 28.56895265 23.66641782 29 32 C28.34 32.66 27.68 33.32 27 34 C26.34 33.34 25.68 32.68 25 32 C25.33 31.67 25.66 31.34 26 31 C26.76074445 25.9790866 24.58399447 22.14621334 22 18 C15.85908008 10.86325523 8.74406661 7.14927148 0 4 C0 2.68 0 1.36 0 0 Z " fill="#F389B5" transform="translate(200,21)"/>
<path d="M0 0 C15.40371663 0.64367116 25.77493892 4.57633238 39 12 C39 12.33 39 12.66 39 13 C37.35 13 35.7 13 34 13 C33.34 15.31 32.68 17.62 32 20 C29.69 20.33 27.38 20.66 25 21 C25.75 14.375 25.75 14.375 28 11 C24.04 9.68 20.08 8.36 16 7 C16.66 6.34 17.32 5.68 18 5 C12.17634262 2.73524435 6.1439184 1.93451186 0 1 C0 0.67 0 0.34 0 0 Z " fill="#EFA710" transform="translate(250,153)"/>
<path d="M0 0 C0.495 0.99 0.495 0.99 1 2 C1.99 2.33 2.98 2.66 4 3 C-8.16815857 10.56990842 -22.08500759 10.46498118 -36 10 C-35.67 9.01 -35.34 8.02 -35 7 C-28.97589633 5.89985341 -23.05734615 4.9538515 -16.9375 4.625 C-10.83024927 4.19741177 -5.60840446 2.37363575 0 0 Z " fill="#F3BD40" transform="translate(123,148)"/>
<path d="M0 0 C-3.23518553 3.23518553 -6.99637714 2.97142304 -11.4296875 3.09765625 C-13.13511719 3.08025391 -13.13511719 3.08025391 -14.875 3.0625 C-16.02742188 3.05347656 -17.17984375 3.04445312 -18.3671875 3.03515625 C-19.23601562 3.02355469 -20.10484375 3.01195312 -21 3 C-20.74438677 5.3431213 -20.40729228 7.67843403 -20 10 C-19.34 10.33 -18.68 10.66 -18 11 C-20.475 10.505 -20.475 10.505 -23 10 C-23 9.34 -23 8.68 -23 8 C-25.64 7.67 -28.28 7.34 -31 7 C-31 6.34 -31 5.68 -31 5 C-32.65 5 -34.3 5 -36 5 C-36 4.01 -36 3.02 -36 2 C-24.06247907 -0.56622331 -12.14435312 -0.20232807 0 0 Z " fill="#F2A809" transform="translate(234,160)"/>
<path d="M0 0 C0.66 1.65 1.32 3.3 2 5 C-1.90860813 6.30286938 -5.54342914 6.01353276 -9.60546875 5.87890625 C-10.86427605 5.84348976 -10.86427605 5.84348976 -12.14851379 5.80735779 C-14.8283512 5.73079724 -17.50789407 5.64674019 -20.1875 5.5625 C-22.00454289 5.50927169 -23.82160014 5.45653134 -25.63867188 5.40429688 C-30.09263435 5.27519238 -34.54634722 5.13936429 -39 5 C-38.67 4.01 -38.34 3.02 -38 2 C-32.90970721 1.71446366 -27.81937479 1.42964851 -22.72900391 1.14550781 C-20.99657087 1.04870207 -19.26414893 0.95169768 -17.53173828 0.85449219 C-15.04462512 0.71497468 -12.55747323 0.57616669 -10.0703125 0.4375 C-9.29317902 0.39375244 -8.51604553 0.35000488 -7.71536255 0.30493164 C-2.22774341 0 -2.22774341 0 0 0 Z " fill="#E8A71B" transform="translate(90,144)"/>
<path d="M0 0 C1.5286041 5.29349939 -0.00253423 7.89442879 -2.55859375 12.546875 C-3.03425781 13.35640625 -3.50992187 14.1659375 -4 15 C-4.36222656 15.66515625 -4.72445313 16.3303125 -5.09765625 17.015625 C-6.1875 18.6875 -6.1875 18.6875 -9 21 C-12.45145163 21.1858474 -15.62900925 20.72001744 -19 20 C-15.32442148 15.99027798 -11.81033104 13.54664585 -7 11 C-7.103125 9.741875 -7.20625 8.48375 -7.3125 7.1875 C-7.32421875 4.98046875 -7.32421875 4.98046875 -7 3 C-4.59140121 0.97170628 -3.16955691 0 0 0 Z " fill="#F5BC37" transform="translate(318,99)"/>
<path d="M0 0 C3.0625 -0.5625 3.0625 -0.5625 6 0 C7.875 1.5 7.875 1.5 9 3 C6.21440172 5.52444844 4.10863122 6.96508282 0.5 8.125 C-6.19596892 10.37845108 -11.59251201 15.60641601 -17 20 C-17.33 19.34 -17.66 18.68 -18 18 C-19.98 18.33 -21.96 18.66 -24 19 C-21.88951046 16.72158873 -19.85213906 15.21191524 -17.12890625 13.73046875 C-16.38962891 13.31603516 -15.65035156 12.90160156 -14.88867188 12.47460938 C-13.34582822 11.62092846 -11.79895949 10.77447935 -10.24804688 9.93554688 C-5.32555029 7.15512887 -2.9295774 4.79511018 0 0 Z " fill="#E4A71E" transform="translate(424,100)"/>
<path d="M0 0 C2.72106694 2.72106694 2.60655572 4.84776311 3.125 8.625 C3.29257813 9.81351563 3.46015625 11.00203125 3.6328125 12.2265625 C3.75398437 13.14179687 3.87515625 14.05703125 4 15 C6.73080995 13.73507937 8.88562667 12.37988398 11.125 10.375 C14 8 14 8 16 8 C16 10.64 16 13.28 16 16 C15.41992188 16.08636719 14.83984375 16.17273438 14.2421875 16.26171875 C6.63846222 17.62938551 3.43498087 20.56501913 -2 26 C-1.34 17.42 -0.68 8.84 0 0 Z " fill="#189A4F" transform="translate(143,48)"/>
<path d="M0 0 C2 2 2 2 2.375 5.9375 C2.29026119 8.85039646 2.22490881 9.71453881 0.375 12.0625 C-2.80703406 13.31856608 -4.74212952 12.92070253 -8 12 C-10 10 -10 10 -10.3125 6.5625 C-10 3 -10 3 -8.9375 1.0625 C-5.92115289 -0.59162584 -3.36333392 -0.30575763 0 0 Z " fill="#8D6940" transform="translate(187,32)"/>
<path d="M0 0 C0.80718475 -0.01812744 1.61436951 -0.03625488 2.4460144 -0.05493164 C3.1751857 -0.07616089 3.90435699 -0.09739014 4.65562439 -0.1192627 C6.49655151 0.08374023 6.49655151 0.08374023 8.49655151 2.08374023 C4.31902223 3.22406775 0.17957616 3.43966205 -4.12844849 3.64624023 C-4.98277466 3.68869873 -5.83710083 3.73115723 -6.71731567 3.77490234 C-18.30602255 4.28677466 -29.90658303 4.17267325 -41.50344849 4.08374023 C-41.17344849 3.09374023 -40.84344849 2.10374023 -40.50344849 1.08374023 C-35.25650072 0.93976794 -30.00951238 0.79741193 -24.76248169 0.65649414 C-22.98089439 0.60842596 -21.19931855 0.55993128 -19.41775513 0.51098633 C-16.84348463 0.44033987 -14.2691756 0.37127403 -11.69485474 0.30249023 C-10.51772667 0.26967957 -10.51772667 0.26967957 -9.31681824 0.23620605 C-7.803062 0.19633474 -6.28918054 0.16092179 -4.77520752 0.13037109 C-3.18321391 0.09769332 -1.59143887 0.05323356 0 0 Z " fill="#F0A50A" transform="translate(91.50344848632813,151.916259765625)"/>
<path d="M0 0 C2.31 0 4.62 0 7 0 C7 0.99 7 1.98 7 3 C6.34 3.66 5.68 4.32 5 5 C8.80312543 8.45738676 12.04186538 9.76046634 17 11 C18 12 18 12 18.0625 15.0625 C18.041875 16.031875 18.02125 17.00125 18 18 C12.91568348 16.69936089 10.61581476 14.70621013 7 11 C2.33240079 8.09571605 -1.6277937 7.46312123 -7 7 C-7 6.34 -7 5.68 -7 5 C-4.69 4.01 -2.38 3.02 0 2 C0 1.34 0 0.68 0 0 Z " fill="#F1A707" transform="translate(399,118)"/>
<path d="M0 0 C-1.21465217 3.07745908 -2.47647232 6.06176804 -4 9 C-4.99 8.67 -5.98 8.34 -7 8 C-12.15701618 7.82809946 -16.91682196 8.15280366 -22 9 C-14.82288618 1.40070301 -10.32528576 -0.66140621 0 0 Z " fill="#F1B130" transform="translate(308,119)"/>
<path d="M0 0 C-0.33 1.65 -0.66 3.3 -1 5 C-0.195625 4.979375 0.60875 4.95875 1.4375 4.9375 C4 5 4 5 5 6 C5.45459858 8.65463121 5.70243238 11.32189138 6 14 C5.01 14 4.02 14 3 14 C3 11.36 3 8.72 3 6 C2.39671875 6.5053125 1.7934375 7.010625 1.171875 7.53125 C0.37265625 8.1809375 -0.4265625 8.830625 -1.25 9.5 C-2.03890625 10.1496875 -2.8278125 10.799375 -3.640625 11.46875 C-6 13 -6 13 -10 13 C-8.98934581 4.84506622 -8.98934581 4.84506622 -5 1.4375 C-2 0 -2 0 0 0 Z " fill="#8F9893" transform="translate(156,50)"/>
<path d="M0 0 C1.12277344 0.20496094 2.24554688 0.40992188 3.40234375 0.62109375 C4.91396219 0.8937858 6.425688 1.16588312 7.9375 1.4375 C8.71496582 1.57800781 9.49243164 1.71851563 10.29345703 1.86328125 C14.32066167 2.57728283 18.29351189 3.18081541 22.375 3.5 C26.1624101 4.02240139 26.65835586 4.29920799 29 7 C27.3125 8.625 27.3125 8.625 25 10 C22.25 9.1875 22.25 9.1875 20 8 C20 7.34 20 6.68 20 6 C15.38 6 10.76 6 6 6 C6 5.34 6 4.68 6 4 C4.68 4 3.36 4 2 4 C2 3.34 2 2.68 2 2 C1.34 2 0.68 2 0 2 C0 1.34 0 0.68 0 0 Z " fill="#E4A82E" transform="translate(304,165)"/>
<path d="M0 0 C0.66 0.99 1.32 1.98 2 3 C1.52046875 3.55558594 1.0409375 4.11117187 0.546875 4.68359375 C-1.20769961 7.31102492 -1.50508948 8.93989087 -1.75 12.0625 C-1.82734375 12.91972656 -1.9046875 13.77695313 -1.984375 14.66015625 C-2.12684277 17.1570645 -2.12684277 17.1570645 -1 20 C1.01508358 20.73323796 1.01508358 20.73323796 3 21 C3 21.33 3 21.66 3 22 C5.97 22 8.94 22 12 22 C9.25400817 24.74599183 7.00297522 24.74951747 3.23046875 25.109375 C-0.06048568 24.9479972 -1.53844298 23.09232347 -4 21 C-6.98810711 20.36077844 -9.95069109 20.13286749 -13 20 C-13 19.34 -13 18.68 -13 18 C-10.03 18 -7.06 18 -4 18 C-4.33 17.67 -4.66 17.34 -5 17 C-5.85760906 10.28206239 -3.25129294 5.77104496 0 0 Z " fill="#39A355" transform="translate(169,112)"/>
<path d="M0 0 C2.875 -0.125 2.875 -0.125 6 0 C6.66 0.66 7.32 1.32 8 2 C9.98821313 2.39764263 11.98944339 2.73775349 14 3 C14 3.33 14 3.66 14 4 C12.14375 4.37125 12.14375 4.37125 10.25 4.75 C6.39841212 5.69766661 4.68152927 7.04107115 2 10 C-0.96174561 11.44475395 -2.68733553 12 -6 12 C-5.6875 10.125 -5.6875 10.125 -5 8 C-4.01 7.34 -3.02 6.68 -2 6 C-0.78715124 2.94570927 -0.78715124 2.94570927 0 0 Z " fill="#50B247" transform="translate(130,138)"/>
<path d="M0 0 C-0.33 0.99 -0.66 1.98 -1 3 C-2.4837915 3.029729 -2.4837915 3.029729 -3.99755859 3.06005859 C-7.66172077 3.13603456 -11.32548164 3.22476352 -14.98925781 3.31738281 C-16.57609138 3.35570585 -18.16301281 3.39055288 -19.75 3.421875 C-22.02896566 3.46745431 -24.30732468 3.52545838 -26.5859375 3.5859375 C-27.65320572 3.60326431 -27.65320572 3.60326431 -28.74203491 3.62094116 C-32.82103657 3.63408239 -32.82103657 3.63408239 -36 6 C-35.63910592 9.48864279 -33.8589578 12.09032693 -32 15 C-35.16115776 13.63016497 -35.9927092 13.0109362 -38 10 C-37.625 6.3125 -37.625 6.3125 -37 3 C-32.99435805 1.12367793 -29.6790454 0.70428624 -25.2734375 0.5859375 C-23.9946875 0.54726562 -22.7159375 0.50859375 -21.3984375 0.46875 C-20.05729558 0.43733233 -18.71614969 0.40608411 -17.375 0.375 C-16.02601775 0.33677236 -14.67705866 0.29771791 -13.328125 0.2578125 C-4.21261161 0 -4.21261161 0 0 0 Z " fill="#38A34B" transform="translate(128,136)"/>
<path d="M0 0 C0 0.99 0 1.98 0 3 C1.32 3.33 2.64 3.66 4 4 C0.20836973 6.52775351 -2.80874031 6.22443035 -7.1875 6.125 C-7.93708984 6.11597656 -8.68667969 6.10695312 -9.45898438 6.09765625 C-11.30612654 6.07412578 -13.15310412 6.03825561 -15 6 C-14.67 4.68 -14.34 3.36 -14 2 C-9.126739 0.4087311 -5.19209404 -0.21192221 0 0 Z " fill="#F3A503" transform="translate(300,126)"/>
<path d="M0 0 C2.31 0 4.62 0 7 0 C7.33 1.32 7.66 2.64 8 4 C11.465 3.505 11.465 3.505 15 3 C15 4.98 15 6.96 15 9 C13.02 9.33 11.04 9.66 9 10 C8.67 9.01 8.34 8.02 8 7 C7.071875 7.309375 7.071875 7.309375 6.125 7.625 C5.42375 7.74875 4.7225 7.8725 4 8 C3.34 7.34 2.68 6.68 2 6 C2.99 6 3.98 6 5 6 C4.67 5.34 4.34 4.68 4 4 C1.97536745 3.34786708 1.97536745 3.34786708 0 3 C0 2.01 0 1.02 0 0 Z " fill="#EA6DA3" transform="translate(160,135)"/>
<path d="M0 0 C1.77503906 0.03480469 1.77503906 0.03480469 3.5859375 0.0703125 C5.36871094 0.09738281 5.36871094 0.09738281 7.1875 0.125 C8.10273438 0.14820313 9.01796875 0.17140625 9.9609375 0.1953125 C9.65625 2.08984375 9.65625 2.08984375 8.9609375 4.1953125 C4.32735758 6.69744566 0.23377835 7.65726752 -5.0390625 8.1953125 C-5.1640625 5.3203125 -5.1640625 5.3203125 -5.0390625 2.1953125 C-3.0390625 0.1953125 -3.0390625 0.1953125 0 0 Z " fill="#EB6EA4" transform="translate(208.0390625,55.8046875)"/>
<path d="M0 0 C14.19 0 28.38 0 43 0 C43 0.33 43 0.66 43 1 C40.69 1.33 38.38 1.66 36 2 C36 2.33 36 2.66 36 3 C23.82808499 3.25897692 12.06918364 2.59781155 0 1 C0 0.67 0 0.34 0 0 Z " fill="#F8AF22" transform="translate(275,136)"/>
<path d="M0 0 C3.09537351 1.06737018 3.98455997 1.97518567 5.75 4.8125 C7.67340067 9.71717172 7.67340067 9.71717172 7 13 C4.5 15.8125 4.5 15.8125 2 18 C1.01 17.67 0.02 17.34 -1 17 C-0.01 16.34 0.98 15.68 2 15 C2.47114738 12.2572492 2.17805784 9.80441103 2 7 C1.01732141 5.79438816 1.01732141 5.79438816 -0.84765625 5.90234375 C-2.8984375 5.93489583 -4.94921875 5.96744792 -7 6 C-7 5.34 -7 4.68 -7 4 C-5.02 4 -3.04 4 -1 4 C-0.67 2.68 -0.34 1.36 0 0 Z " fill="#F8F5F0" transform="translate(186,27)"/>
<path d="M0 0 C0.33 0 0.66 0 1 0 C1.66 2.31 2.32 4.62 3 7 C-0.3 6.67 -3.6 6.34 -7 6 C-7 6.66 -7 7.32 -7 8 C-8.64453125 9.1484375 -8.64453125 9.1484375 -10.8125 10.375 C-13.42347858 11.91868383 -14.88007764 12.83566195 -16.6875 15.3125 C-17.3371875 16.1478125 -17.3371875 16.1478125 -18 17 C-20.6875 17.25 -20.6875 17.25 -23 17 C-21.87890323 15.87890323 -20.75640913 14.7591851 -19.62890625 13.64453125 C-18.40793727 12.41185034 -17.21125779 11.15503062 -16.02734375 9.88671875 C-15.33769531 9.16097656 -14.64804688 8.43523437 -13.9375 7.6875 C-13.28652344 6.99011719 -12.63554687 6.29273438 -11.96484375 5.57421875 C-10 4 -10 4 -6 4 C-5.67 3.34 -5.34 2.68 -5 2 C-4.67 2.66 -4.34 3.32 -4 4 C-1.97536745 4.65213292 -1.97536745 4.65213292 0 5 C0 3.35 0 1.7 0 0 Z " fill="#109D49" transform="translate(163,124)"/>
<path d="M0 0 C1.6442351 4.93270529 0.18615592 7.54024193 -2 12 C-5.875 10.125 -5.875 10.125 -7 9 C-7.375 6.125 -7.375 6.125 -7 3 C-4.61107499 1.11400657 -3.08148442 0 0 0 Z " fill="#69AA49" transform="translate(318,99)"/>
<path d="M0 0 C3.19410622 0.46580716 4.10442866 0.91007155 6 3.4375 C2.39042389 6.7285841 -0.12637153 7.98413921 -5 8.4375 C-5.6875 6.6875 -5.6875 6.6875 -6 4.4375 C-4.44829329 1.15153286 -3.63170314 0.52962338 0 0 Z " fill="#55AF4F" transform="translate(427,99.5625)"/>
<path d="M0 0 C-2.475 1.485 -2.475 1.485 -5 3 C-4.67 3.66 -4.34 4.32 -4 5 C-6.91602609 5.50400451 -9.83272092 6.00334666 -12.75 6.5 C-13.575 6.64308594 -14.4 6.78617188 -15.25 6.93359375 C-16.04921875 7.06894531 -16.8484375 7.20429688 -17.671875 7.34375 C-18.4050293 7.46943359 -19.13818359 7.59511719 -19.89355469 7.72460938 C-22 8 -22 8 -26 8 C-26 7.34 -26 6.68 -26 6 C-23.36 6 -20.72 6 -18 6 C-17.62875 5.0409375 -17.62875 5.0409375 -17.25 4.0625 C-16 2 -16 2 -13.875 1.25 C-13.25625 1.1675 -12.6375 1.085 -12 1 C-12 1.66 -12 2.32 -12 3 C-10.68 3 -9.36 3 -8 3 C-8 2.34 -8 1.68 -8 1 C-3.375 -1.125 -3.375 -1.125 0 0 Z " fill="#F3B32F" transform="translate(182,163)"/>
<path d="M0 0 C2.32590854 3.63423209 2.16265833 6.77088331 2 11 C0.35 11.33 -1.3 11.66 -3 12 C-5.1610211 8.75846834 -5.64247553 7.76307099 -5 4 C-2.5 1.6875 -2.5 1.6875 0 0 Z " fill="#6FA854" transform="translate(396,108)"/>
<path d="M0 0 C6.15234375 -0.09765625 6.15234375 -0.09765625 8 0 C9 1 9 1 9.1875 3.875 C9 7 9 7 7 10 C0.23620423 11.55234657 0.23620423 11.55234657 -3.9375 9.6875 C-6 8 -6 8 -7 6 C-5.02 6 -3.04 6 -1 6 C-0.67 6.66 -0.34 7.32 0 8 C1.98 8 3.96 8 6 8 C5.67 6.35 5.34 4.7 5 3 C3.35 2.67 1.7 2.34 0 2 C0 1.34 0 0.68 0 0 Z " fill="#E9768D" transform="translate(169,136)"/>
<path d="M0 0 C-0.33 0.66 -0.66 1.32 -1 2 C-1.66 2 -2.32 2 -3 2 C-3 2.66 -3 3.32 -3 4 C-3.66 4 -4.32 4 -5 4 C-5.33 4.66 -5.66 5.32 -6 6 C-8.06640625 6.4140625 -8.06640625 6.4140625 -10.5625 6.625 C-11.38878906 6.69976563 -12.21507812 6.77453125 -13.06640625 6.8515625 C-14.02353516 6.92503906 -14.02353516 6.92503906 -15 7 C-15.66 5.68 -16.32 4.36 -17 3 C-13.62902617 1.50178941 -11.79557881 1 -8 1 C-7.154375 0.649375 -6.30875 0.29875 -5.4375 -0.0625 C-3 -1 -3 -1 0 0 Z " fill="#E0699F" transform="translate(155,22)"/>
<path d="M0 0 C0.598125 0.226875 1.19625 0.45375 1.8125 0.6875 C2 4.0625 2 4.0625 1.8125 7.6875 C-1.41541555 9.8394437 -2.47150809 9.88836443 -6.1875 9.6875 C-5.58414218 3.29190714 -5.58414218 3.29190714 -3.875 0.6875 C-2.1875 -0.3125 -2.1875 -0.3125 0 0 Z " fill="#6DA34E" transform="translate(281.1875,164.3125)"/>
<path d="M0 0 C1.65 0.33 3.3 0.66 5 1 C5.75 3.25 5.75 3.25 6 6 C4.3125 8.3125 4.3125 8.3125 2 10 C0.68 10 -0.64 10 -2 10 C-1.125 2.25 -1.125 2.25 0 0 Z " fill="#5AAB3C" transform="translate(201,168)"/>
<path d="M0 0 C0.9075 0.391875 1.815 0.78375 2.75 1.1875 C2.75 2.5075 2.75 3.8275 2.75 5.1875 C1.75 6.1875 1.75 6.1875 -0.53515625 6.28515625 C-1.90994141 6.26775391 -1.90994141 6.26775391 -3.3125 6.25 C-4.23160156 6.24097656 -5.15070313 6.23195313 -6.09765625 6.22265625 C-6.80792969 6.21105469 -7.51820313 6.19945313 -8.25 6.1875 C-7.70084432 3.56677684 -7.39373686 2.34720762 -5.5625 0.3125 C-3.25 -0.8125 -3.25 -0.8125 0 0 Z " fill="#61AB53" transform="translate(318.25,120.8125)"/>
<path d="M0 0 C1.54204102 0.00966797 1.54204102 0.00966797 3.11523438 0.01953125 C4.18708984 0.03628906 5.25894531 0.05304688 6.36328125 0.0703125 C7.44673828 0.07933594 8.53019531 0.08835938 9.64648438 0.09765625 C12.32313835 0.1212391 14.99934922 0.15415124 17.67578125 0.1953125 C14.48729208 3.38380167 10.79296225 3.14971328 6.421875 3.328125 C5.33003906 3.32554687 4.23820313 3.32296875 3.11328125 3.3203125 C1.47166016 3.32417969 1.47166016 3.32417969 -0.203125 3.328125 C-3.03030788 3.20781935 -5.57529135 2.84031222 -8.32421875 2.1953125 C-4.97302356 -0.03881763 -3.90644325 -0.04316512 0 0 Z " fill="#F1AD25" transform="translate(216.32421875,159.8046875)"/>
<path d="M0 0 C1.32 0 2.64 0 4 0 C4.103125 0.61875 4.20625 1.2375 4.3125 1.875 C4.87525373 4.36526484 4.87525373 4.36526484 8 6 C8.34057617 8.52197266 8.34057617 8.52197266 8.29296875 11.6640625 C8.28330078 12.78554688 8.27363281 13.90703125 8.26367188 15.0625 C8.23853516 16.238125 8.21339844 17.41375 8.1875 18.625 C8.17396484 19.80835937 8.16042969 20.99171875 8.14648438 22.2109375 C8.11103916 25.14107539 8.06162769 28.07031459 8 31 C8.66 31.33 9.32 31.66 10 32 C9.34 32 8.68 32 8 32 C7.67 32.99 7.34 33.98 7 35 C6.67 35 6.34 35 6 35 C6.02320313 33.88882813 6.04640625 32.77765625 6.0703125 31.6328125 C6.31275309 16.25582782 6.31275309 16.25582782 1 2 C0.67 1.34 0.34 0.68 0 0 Z " fill="#D689A7" transform="translate(196,21)"/>
<path d="M0 0 C0.66 0 1.32 0 2 0 C4.53710068 9.47184254 5.14680023 18.2133182 5 28 C4.67 28 4.34 28 4 28 C3.88406494 27.31373535 3.76812988 26.6274707 3.64868164 25.92041016 C3.12324724 22.82137127 2.59293597 19.72318656 2.0625 16.625 C1.88009766 15.54476562 1.69769531 14.46453125 1.50976562 13.3515625 C1.33251953 12.3203125 1.15527344 11.2890625 0.97265625 10.2265625 C0.81031494 9.27346191 0.64797363 8.32036133 0.48071289 7.33837891 C0.1028932 4.99083032 0.1028932 4.99083032 -1 3 C-0.67 2.01 -0.34 1.02 0 0 Z " fill="#239A52" transform="translate(197,71)"/>
<path d="M0 0 C0 2.97 0 5.94 0 9 C0.55429688 8.57847656 1.10859375 8.15695313 1.6796875 7.72265625 C2.76636719 6.90087891 2.76636719 6.90087891 3.875 6.0625 C4.59429687 5.51722656 5.31359375 4.97195312 6.0546875 4.41015625 C8 3 8 3 10 2 C9.42655063 4.86724686 9.1385485 5.8614515 7 8 C6.3574765 10.06874034 6.3574765 10.06874034 6 12 C3.625 12.625 3.625 12.625 1 13 C-1.76223278 10.23776722 -1.57856291 7.79293383 -2 4 C-3.32 4.33 -4.64 4.66 -6 5 C-1.125 0 -1.125 0 0 0 Z " fill="#5DB355" transform="translate(154,91)"/>
<path d="M0 0 C0.96808594 -0.01417969 1.93617188 -0.02835938 2.93359375 -0.04296875 C5.5625 0.1875 5.5625 0.1875 8.5625 2.1875 C5.85370665 3.54189668 3.55316732 3.25251451 0.5625 3.1875 C0.5625 2.5275 0.5625 1.8675 0.5625 1.1875 C-0.7575 1.5175 -2.0775 1.8475 -3.4375 2.1875 C-3.086875 2.785625 -2.73625 3.38375 -2.375 4 C-1.4375 6.1875 -1.4375 6.1875 -2.4375 9.1875 C-3.0975 9.1875 -3.7575 9.1875 -4.4375 9.1875 C-6.625 6.875 -6.625 6.875 -8.4375 4.1875 C-8.1075 3.1975 -7.7775 2.2075 -7.4375 1.1875 C-4.84996844 -0.10626578 -2.88791015 0.01917603 0 0 Z " fill="#EEBA39" transform="translate(143.4375,141.8125)"/>
<path d="M0 0 C7.94089904 0.90051432 15.06809742 5.2942169 20.1875 11.4375 C21.0846875 12.7059375 21.0846875 12.7059375 22 14 C21.67 14.66 21.34 15.32 21 16 C16.125 12.375 16.125 12.375 15 9 C11.40422382 6.87522317 8.12838068 5.60711481 4 5 C4 4.01 4 3.02 4 2 C2.68 2 1.36 2 0 2 C0 1.34 0 0.68 0 0 Z " fill="#E494B7" transform="translate(202,21)"/>
<path d="M0 0 C0.66 0.33 1.32 0.66 2 1 C1.34 1.66 0.68 2.32 0 3 C2.64 3.33 5.28 3.66 8 4 C7.67 4.99 7.34 5.98 7 7 C0.565 7.495 0.565 7.495 -6 8 C-2.25 2.25 -2.25 2.25 0 0 Z " fill="#A2867D" transform="translate(150,134)"/>
<path d="M0 0 C0.5662207 0.32145996 1.13244141 0.64291992 1.71582031 0.97412109 C4.16231069 2.07289756 5.88172002 2.30601568 8.546875 2.4140625 C9.81337891 2.47207031 9.81337891 2.47207031 11.10546875 2.53125 C12.41451172 2.57765625 12.41451172 2.57765625 13.75 2.625 C14.63816406 2.66367188 15.52632812 2.70234375 16.44140625 2.7421875 C18.6273998 2.83620873 20.81339062 2.92186143 23 3 C20.34818416 5.67258724 19.05381249 5.99744543 15.21484375 6.1796875 C13.78795759 6.09505292 12.3620182 5.9929619 10.9375 5.875 C10.21755859 5.83890625 9.49761719 5.8028125 8.75585938 5.765625 C5.73201526 5.55224324 3.50360421 5.36070282 1.00390625 3.5703125 C0 2 0 2 0 0 Z " fill="#DD6C9F" transform="translate(140,12)"/>
<path d="M0 0 C0.33 0.66 0.66 1.32 1 2 C0.34 2 -0.32 2 -1 2 C-1.90413673 5.83724172 -2.10576898 9.37502274 -2.0625 13.3125 C-2.04896484 14.91544922 -2.04896484 14.91544922 -2.03515625 16.55078125 C-2.02355469 17.35902344 -2.01195312 18.16726562 -2 19 C-4.89741846 16.22855626 -5.91688506 14.8643954 -6.3125 10.75 C-5.94713599 6.36563187 -4.73973233 4.38437523 -2 1 C-1.34 0.67 -0.68 0.34 0 0 Z " fill="#E2E2E1" transform="translate(173,27)"/>
<path d="M0 0 C2.97 0.495 2.97 0.495 6 1 C6.33 1.99 6.66 2.98 7 4 C6.34 4 5.68 4 5 4 C5 5.32 5 6.64 5 8 C2.625 7.75 2.625 7.75 0 7 C-1.3125 4.9375 -1.3125 4.9375 -2 3 C-1.34 2.01 -0.68 1.02 0 0 Z " fill="#93B352" transform="translate(229,173)"/>
<path d="M0 0 C0.99 0.495 0.99 0.495 2 1 C1.67 4.63 1.34 8.26 1 12 C1.886875 11.814375 2.77375 11.62875 3.6875 11.4375 C9.38633041 10.61498839 15.33959102 11.0565985 21 12 C21.33 12.66 21.66 13.32 22 14 C18.70835171 14.02895225 15.41673601 14.0467823 12.125 14.0625 C11.18785156 14.07087891 10.25070313 14.07925781 9.28515625 14.08789062 C7.94130859 14.09272461 7.94130859 14.09272461 6.5703125 14.09765625 C5.74289551 14.10289307 4.91547852 14.10812988 4.06298828 14.11352539 C2 14 2 14 0 13 C0 8.71 0 4.42 0 0 Z " fill="#DD77A1" transform="translate(204,39)"/>
<path d="M0 0 C0.66 0.99 1.32 1.98 2 3 C4.05925139 3.72382467 4.05925139 3.72382467 6 4 C6 4.66 6 5.32 6 6 C2.25 7.125 2.25 7.125 0 6 C-0.226875 6.639375 -0.45375 7.27875 -0.6875 7.9375 C-2 10 -2 10 -4.625 10.75 C-5.40875 10.8325 -6.1925 10.915 -7 11 C-6 9 -6 9 -4.625 7.75 C-2.47134685 5.43068122 -1.33116323 2.85249263 0 0 Z " fill="#61AE68" transform="translate(193,65)"/>
<path d="M0 0 C4.875 0.875 4.875 0.875 6 2 C6.04080783 3.99958364 6.04254356 6.00045254 6 8 C3.0625 7.25 3.0625 7.25 0 6 C-0.9375 4 -0.9375 4 -1 2 C-0.67 1.34 -0.34 0.68 0 0 Z " fill="#64AB51" transform="translate(411,128)"/>
<path d="M0 0 C0.96292969 0.05800781 1.92585938 0.11601563 2.91796875 0.17578125 C4.38169922 0.24345703 4.38169922 0.24345703 5.875 0.3125 C6.61105469 0.37050781 7.34710938 0.42851563 8.10546875 0.48828125 C8.10546875 1.47828125 8.10546875 2.46828125 8.10546875 3.48828125 C2.82546875 4.14828125 -2.45453125 4.80828125 -7.89453125 5.48828125 C-2.89453125 0.48828125 -2.89453125 0.48828125 0 0 Z " fill="#F9BC32" transform="translate(293.89453125,122.51171875)"/>
<path d="M0 0 C0.66 0 1.32 0 2 0 C1.63816683 2.62329048 1.25045572 3.76775924 -0.71875 5.59375 C-3.36767006 7.22664592 -5.16440975 7.48450064 -8.25 7.6875 C-9.14203125 7.75324219 -10.0340625 7.81898438 -10.953125 7.88671875 C-11.62859375 7.92410156 -12.3040625 7.96148437 -13 8 C-10.37791786 5.93768821 -7.82205371 4.30919633 -4.8125 2.875 C-2.21335811 1.71161064 -2.21335811 1.71161064 0 0 Z " fill="#149C48" transform="translate(186,127)"/>
<path d="M0 0 C3.25836161 3.25836161 2.8867275 7.58572911 3.4375 12.03125 C3.73166199 15.10706858 3.73166199 15.10706858 6 17 C4.68 16.67 3.36 16.34 2 16 C2 15.01 2 14.02 2 13 C1.34 13 0.68 13 0 13 C0 14.98 0 16.96 0 19 C-0.33 19 -0.66 19 -1 19 C-0.67 12.73 -0.34 6.46 0 0 Z " fill="#29995C" transform="translate(143,48)"/>
<path d="M0 0 C5.53846154 -0.36923077 5.53846154 -0.36923077 7.875 1.5 C8.24625 1.995 8.6175 2.49 9 3 C7.3125 4.625 7.3125 4.625 5 6 C2.25 5.1875 2.25 5.1875 0 4 C0 2.68 0 1.36 0 0 Z " fill="#62A951" transform="translate(324,169)"/>
<path d="M0 0 C1.97119141 -0.2487793 1.97119141 -0.2487793 4.3515625 -0.07421875 C5.62773437 0.00795898 5.62773437 0.00795898 6.9296875 0.09179688 C7.81914062 0.16462891 8.70859375 0.23746094 9.625 0.3125 C10.5221875 0.37373047 11.419375 0.43496094 12.34375 0.49804688 C14.56386306 0.65156533 16.78194979 0.81943161 19 1 C19 1.33 19 1.66 19 2 C11.97360585 2.74805717 5.06608191 3.13794954 -2 3 C-1.34 2.01 -0.68 1.02 0 0 Z " fill="#F5B435" transform="translate(242,158)"/>
<path d="M0 0 C3.40312738 1.05875074 6.01353231 2.00902154 9 4 C9 4.66 9 5.32 9 6 C9.66 6.33 10.32 6.66 11 7 C5.70558305 7.50423019 3.18586481 6.18923033 -1 3 C-0.67 2.01 -0.34 1.02 0 0 Z " fill="#EEA411" transform="translate(284,155)"/>
<path d="M0 0 C-0.33 0.99 -0.66 1.98 -1 3 C-11.23 2.67 -21.46 2.34 -32 2 C-32 1.67 -32 1.34 -32 1 C-27.92490906 0.85692089 -23.84979494 0.71452295 -19.7746582 0.57275391 C-18.38858396 0.5244383 -17.00251618 0.47593715 -15.61645508 0.42724609 C-13.62322675 0.35725814 -11.62997304 0.28799457 -9.63671875 0.21875 C-8.43748779 0.17685547 -7.23825684 0.13496094 -6.00268555 0.09179688 C-4.0024909 0.03064774 -2.00112914 0 0 0 Z " fill="#46A060" transform="translate(128,136)"/>
<path d="M0 0 C0.33 0 0.66 0 1 0 C0.67 3.3 0.34 6.6 0 10 C-1.65 9.67 -3.3 9.34 -5 9 C-4.42680151 5.13091017 -2.56186024 2.88209277 0 0 Z " fill="#04A24B" transform="translate(163,119)"/>
<path d="M0 0 C2.0625 0.4375 2.0625 0.4375 4 1 C-0.7496148 4.00485835 -4.25542463 5.6620838 -10 6 C-10.66 5.67 -11.32 5.34 -12 5 C-12 4.01 -12 3.02 -12 2 C-11.34 2 -10.68 2 -10 2 C-10 2.66 -10 3.32 -10 4 C-8.51965236 3.52449439 -7.04074979 3.04448784 -5.5625 2.5625 C-4.73878906 2.29566406 -3.91507813 2.02882812 -3.06640625 1.75390625 C-1.03780412 1.17844506 -1.03780412 1.17844506 0 0 Z " fill="#D1719C" transform="translate(213,60)"/>
<path d="M0 0 C0.33 0.66 0.66 1.32 1 2 C1.66 2 2.32 2 3 2 C6.01704885 5.1999003 7.49890042 7.61537866 8 12 C6 11 6 11 4.5625 8.5 C3.18680459 5.70844517 3.18680459 5.70844517 0 5 C0 6.32 0 7.64 0 9 C-0.66 9 -1.32 9 -2 9 C-2 6.36 -2 3.72 -2 1 C-1.34 0.67 -0.68 0.34 0 0 Z " fill="#ABCC9B" transform="translate(165,65)"/>
<path d="M0 0 C2.83531798 3.23366844 3.63360827 5.90654302 4.3125 10.125 C4.49425781 11.17945313 4.67601562 12.23390625 4.86328125 13.3203125 C4.93095703 14.64675781 4.93095703 14.64675781 5 16 C4.34 16.66 3.68 17.32 3 18 C2.34 17.34 1.68 16.68 1 16 C1.33 15.67 1.66 15.34 2 15 C2.2200161 12.28646808 2.26143731 10.50653479 1 8.0625 C-0.33343743 5.3122853 -0.1370035 3.01407708 0 0 Z " fill="#E796B6" transform="translate(224,37)"/>
<path d="M0 0 C0.75 1.75 0.75 1.75 1 4 C-0.625 6.3125 -0.625 6.3125 -3 8 C-5.75 7.75 -5.75 7.75 -8 7 C-8 6.34 -8 5.68 -8 5 C-7.05125 4.54625 -6.1025 4.0925 -5.125 3.625 C-1.99686321 2.19761746 -1.99686321 2.19761746 0 0 Z " fill="#D0719A" transform="translate(145,34)"/>
<path d="M0 0 C2.97 0 5.94 0 9 0 C6.80587773 3.46440358 4.97305199 4.9074107 1 6 C0.01 5.67 -0.98 5.34 -2 5 C-1.34 5 -0.68 5 0 5 C0 3.35 0 1.7 0 0 Z " fill="#EC71A7" transform="translate(149,17)"/>
<path d="M0 0 C0.99 0.66 1.98 1.32 3 2 C2.38511719 2.32613281 1.77023438 2.65226563 1.13671875 2.98828125 C0.32847656 3.42527344 -0.47976562 3.86226562 -1.3125 4.3125 C-2.11300781 4.74175781 -2.91351563 5.17101562 -3.73828125 5.61328125 C-6.02230987 6.88311362 -6.02230987 6.88311362 -7.60546875 8.66796875 C-9 10 -9 10 -12 10 C-10.95505436 6.74905801 -9.40864509 5.43126714 -6.5625 3.75 C-3 2 -3 2 0 2 C0 1.34 0 0.68 0 0 Z " fill="#AE889A" transform="translate(167,12)"/>
<path d="M0 0 C1.98 0 3.96 0 6 0 C6.33 0.66 6.66 1.32 7 2 C9.97 2 12.94 2 16 2 C13.26524121 4.73475879 11.0248264 4.80376736 7.265625 5.1796875 C5 5 5 5 1.9375 2.5625 C1.298125 1.716875 0.65875 0.87125 0 0 Z " fill="#49925C" transform="translate(165,132)"/>
<path d="M0 0 C0.7425 0.0825 1.485 0.165 2.25 0.25 C1.5075 0.806875 0.765 1.36375 0 1.9375 C-2.83152834 4.13043842 -2.83152834 4.13043842 -4.75 7 C-6.75 9.25 -6.75 9.25 -9.5 9.5625 C-10.61375 9.4078125 -10.61375 9.4078125 -11.75 9.25 C-10.08333333 7.58333333 -8.41666667 5.91666667 -6.75 4.25 C-6.09 3.486875 -5.43 2.72375 -4.75 1.9375 C-2.75 0.25 -2.75 0.25 0 0 Z " fill="#29944E" transform="translate(151.75,131.75)"/>
<path d="M0 0 C3.3 0 6.6 0 10 0 C10 0.99 10 1.98 10 3 C6.37 3 2.74 3 -1 3 C-0.67 2.01 -0.34 1.02 0 0 Z " fill="#EDA704" transform="translate(78,145)"/>
<path d="M0 0 C-0.33 1.32 -0.66 2.64 -1 4 C-3.97 4 -6.94 4 -10 4 C-7.56830601 0.23087432 -7.56830601 0.23087432 -5 -0.8125 C-3 -1 -3 -1 0 0 Z " fill="#E774A5" transform="translate(159,134)"/>
<path d="M0 0 C0.66 0 1.32 0 2 0 C2.625 2.875 2.625 2.875 3 6 C1 8 1 8 -2.125 8.125 C-3.548125 8.063125 -3.548125 8.063125 -5 8 C-4.21718695 6.66144944 -3.42348123 5.32926356 -2.625 4 C-2.18414062 3.2575 -1.74328125 2.515 -1.2890625 1.75 C-0.86367187 1.1725 -0.43828125 0.595 0 0 Z " fill="#57AC60" transform="translate(183,67)"/>
<path d="M0 0 C0.66 0.33 1.32 0.66 2 1 C-0.76922851 4.07692057 -3.02850024 5.77800007 -7 7 C-7.99 7 -8.98 7 -10 7 C-9.67 5.68 -9.34 4.36 -9 3 C-8.071875 2.87625 -7.14375 2.7525 -6.1875 2.625 C-2.86074765 2.18466918 -2.86074765 2.18466918 0 0 Z " fill="#78AD34" transform="translate(134,143)"/>
<path d="M0 0 C6.06892629 -0.25287193 11.16200408 0.30167391 17 2 C17 2.33 17 2.66 17 3 C11.06 3.495 11.06 3.495 5 4 C5.33 3.34 5.66 2.68 6 2 C3.03 1.505 3.03 1.505 0 1 C0 0.67 0 0.34 0 0 Z " fill="#E0A82B" transform="translate(312,129)"/>
<path d="M0 0 C2.97 1.98 5.94 3.96 9 6 C8.67 6.99 8.34 7.98 8 9 C4.7 7.35 1.4 5.7 -2 4 C-1.34 3.67 -0.68 3.34 0 3 C0 2.01 0 1.02 0 0 Z " fill="#D9AF32" transform="translate(402,122)"/>
<path d="M0 0 C0.99 0.33 1.98 0.66 3 1 C3 2.65 3 4.3 3 6 C1.35 6.33 -0.3 6.66 -2 7 C-2.33 5.35 -2.66 3.7 -3 2 C-2.01 1.34 -1.02 0.68 0 0 Z " fill="#56B24B" transform="translate(395,111)"/>
<path d="M0 0 C0.99 0 1.98 0 3 0 C2.125 5.75 2.125 5.75 1 8 C0.01 7.67 -0.98 7.34 -2 7 C-2.125 4.625 -2.125 4.625 -2 2 C-1.34 1.34 -0.68 0.68 0 0 Z " fill="#51B346" transform="translate(279,166)"/>
<path d="M0 0 C0.99 0 1.98 0 3 0 C3.33 0.66 3.66 1.32 4 2 C6.52733235 2.65555119 6.52733235 2.65555119 9 3 C8.01 4.485 8.01 4.485 7 6 C4.5 6.375 4.5 6.375 2 6 C0 3 0 3 0 0 Z " fill="#F4A404" transform="translate(295,163)"/>
<path d="M0 0 C0.33 0.66 0.66 1.32 1 2 C1.99 2.33 2.98 2.66 4 3 C0.54785147 5.30143236 -0.23479324 5.13833854 -4.1875 4.625 C-5.53908203 4.45871094 -5.53908203 4.45871094 -6.91796875 4.2890625 C-7.94857422 4.14597656 -7.94857422 4.14597656 -9 4 C-6.05047042 2.50002556 -3.08510827 1.19976433 0 0 Z " fill="#DDBD3F" transform="translate(123,148)"/>
<path d="M0 0 C0.99 0.66 1.98 1.32 3 2 C2.67 2.99 2.34 3.98 2 5 C-2.455 5.495 -2.455 5.495 -7 6 C-4.74259377 3.66475218 -2.7194239 1.81294927 0 0 Z " fill="#E1AD20" transform="translate(312,109)"/>
<path d="M0 0 C0.66 0.33 1.32 0.66 2 1 C1.731875 1.66 1.46375 2.32 1.1875 3 C-0.25705047 6.64939067 -1.62871178 10.32245433 -3 14 C-3.66 14 -4.32 14 -5 14 C-4.74279326 12.41439607 -4.46861201 10.83154076 -4.1875 9.25 C-3.96126953 7.92742188 -3.96126953 7.92742188 -3.73046875 6.578125 C-2.94585752 3.8089089 -1.85404641 2.1740599 0 0 Z " fill="#AA8597" transform="translate(150,26)"/>
<path d="M0 0 C0.66 0.33 1.32 0.66 2 1 C1.37351563 1.43570313 0.74703125 1.87140625 0.1015625 2.3203125 C-6.27427862 6.85062788 -6.27427862 6.85062788 -9 14 C-9.66 12.68 -10.32 11.36 -11 10 C-9.92492371 8.70145279 -8.83956264 7.41141639 -7.75 6.125 C-7.14671875 5.40570313 -6.5434375 4.68640625 -5.921875 3.9453125 C-4.0081913 2.0082912 -2.55410501 0.9182113 0 0 Z " fill="#7CD087" transform="translate(152,64)"/>
<path d="M0 0 C1.99954746 -0.04254356 4.00041636 -0.04080783 6 0 C8.04698414 2.04698414 7.70045693 6.30411241 8 9 C7.01 9 6.02 9 5 9 C5 6.36 5 3.72 5 1 C2.525 2.485 2.525 2.485 0 4 C0 2.68 0 1.36 0 0 Z " fill="#809E8A" transform="translate(154,55)"/>
<path d="M0 0 C0 3 0 3 -1 6 C-4 8 -4 8 -7 8 C-6.67 6.02 -6.34 4.04 -6 2 C-5.67 2.66 -5.34 3.32 -5 4 C-3.35 2.68 -1.7 1.36 0 0 Z " fill="#5FB754" transform="translate(169,100)"/>
<path d="M0 0 C1.45792884 -0.05399736 2.91642712 -0.09279177 4.375 -0.125 C5.18710938 -0.14820313 5.99921875 -0.17140625 6.8359375 -0.1953125 C9 0 9 0 11 2 C7.32589215 3.17571451 3.83070817 3.07366746 0 3 C0 2.01 0 1.02 0 0 Z " fill="#EAAA12" transform="translate(89,152)"/>
<path d="M0 0 C1.6442351 4.93270529 0.18615592 7.54024193 -2 12 C-2.33 12 -2.66 12 -3 12 C-3.07427838 8.65747276 -3.06546953 6.1964086 -2 3 C-2.66 3 -3.32 3 -4 3 C-4 2.34 -4 1.68 -4 1 C-2 0 -2 0 0 0 Z " fill="#65AD53" transform="translate(318,99)"/>
<path d="M0 0 C3 1 3 1 4.1875 3.0625 C4.455625 3.701875 4.72375 4.34125 5 5 C3.35 5.33 1.7 5.66 0 6 C-0.38218767 4.34385343 -0.71395102 2.67542976 -1 1 C-0.67 0.67 -0.34 0.34 0 0 Z " fill="#170906" transform="translate(182,35)"/>
<path d="M0 0 C0.66 0.33 1.32 0.66 2 1 C1.67 3.64 1.34 6.28 1 9 C0.01 9 -0.98 9 -2 9 C-1.125 2.25 -1.125 2.25 0 0 Z " fill="#EB8EB2" transform="translate(138,30)"/>
<path d="M0 0 C0.66 0.99 1.32 1.98 2 3 C1.34 3 0.68 3 0 3 C-0.33 3.99 -0.66 4.98 -1 6 C-1.66 5.34 -2.32 4.68 -3 4 C-2.67 3.34 -2.34 2.68 -2 2 C-2.763125 2.165 -3.52625 2.33 -4.3125 2.5 C-7 3 -7 3 -10 3 C-7.3046972 -0.80513337 -4.38206487 -0.47804344 0 0 Z " fill="#AA8F6D" transform="translate(187,32)"/>
<path d="M0 0 C0.928125 0.0825 1.85625 0.165 2.8125 0.25 C2.8125 0.58 2.8125 0.91 2.8125 1.25 C1.1625 1.25 -0.4875 1.25 -2.1875 1.25 C-2.5175 3.23 -2.8475 5.21 -3.1875 7.25 C-2.5275 7.58 -1.8675 7.91 -1.1875 8.25 C-2.5075 8.25 -3.8275 8.25 -5.1875 8.25 C-5.875 6.5 -5.875 6.5 -6.1875 4.25 C-4.57120184 0.82725095 -3.82796192 0.30023231 0 0 Z " fill="#64AB52" transform="translate(427.1875,99.75)"/>
<path d="M0 0 C4.74918662 0.46560653 8.10782405 1.16932658 12 4 C12 4.33 12 4.66 12 5 C9.69 5 7.38 5 5 5 C5 4.01 5 3.02 5 2 C3.35 1.67 1.7 1.34 0 1 C0 0.67 0 0.34 0 0 Z " fill="#8C8E8C" transform="translate(180,12)"/>
<path d="M0 0 C0.66 0.66 1.32 1.32 2 2 C-1.63 2 -5.26 2 -9 2 C-9 1.34 -9 0.68 -9 0 C-5.64961743 -0.83759564 -3.2704774 -1.24052591 0 0 Z " fill="#F1BE44" transform="translate(94,150)"/>
<path d="M0 0 C0.66 0.33 1.32 0.66 2 1 C2 1.99 2 2.98 2 4 C1.34 4 0.68 4 0 4 C0 4.66 0 5.32 0 6 C-1.32 6 -2.64 6 -4 6 C-3.6875 4.125 -3.6875 4.125 -3 2 C-2.01 1.34 -1.02 0.68 0 0 Z " fill="#F2B63B" transform="translate(281,130)"/>
<path d="M0 0 C0.66 0 1.32 0 2 0 C2.12375 0.969375 2.2475 1.93875 2.375 2.9375 C2.684375 4.4534375 2.684375 4.4534375 3 6 C3.66 6.33 4.32 6.66 5 7 C3.35 6.67 1.7 6.34 0 6 C-0.38218767 4.34385343 -0.71395102 2.67542976 -1 1 C-0.67 0.67 -0.34 0.34 0 0 Z " fill="#F8A202" transform="translate(211,164)"/>
<path d="M0 0 C3.125 -0.1875 3.125 -0.1875 6 0 C6 0.99 6 1.98 6 3 C3.36 3 0.72 3 -2 3 C-1.34 2.01 -0.68 1.02 0 0 Z " fill="#F3A309" transform="translate(299,119)"/>
<path d="M0 0 C0.66 0 1.32 0 2 0 C2 2.64 2 5.28 2 8 C0.35 8 -1.3 8 -3 8 C-2.01 7.67 -1.02 7.34 0 7 C0 5.68 0 4.36 0 3 C-0.66 2.67 -1.32 2.34 -2 2 C-1.34 1.34 -0.68 0.68 0 0 Z " fill="#2C9558" transform="translate(157,56)"/>
<path d="M0 0 C1.32 0 2.64 0 4 0 C4 0.66 4 1.32 4 2 C5.98 2 7.96 2 10 2 C10.33 3.32 10.66 4.64 11 6 C7.2089881 4.55049545 3.6125362 2.84827434 0 1 C0 0.67 0 0.34 0 0 Z " fill="#D5AA1D" transform="translate(199,165)"/>
<path d="M0 0 C2.64 0 5.28 0 8 0 C8.33 1.32 8.66 2.64 9 4 C6.36 3.67 3.72 3.34 1 3 C0.67 2.01 0.34 1.02 0 0 Z " fill="#B7798A" transform="translate(169,136)"/>
<path d="M0 0 C1.32 1.32 2.64 2.64 4 4 C4.33 3.01 4.66 2.02 5 1 C5.33 1.99 5.66 2.98 6 4 C4.68 5.32 3.36 6.64 2 8 C0.23537317 4.91190305 0 3.76687864 0 0 Z " fill="#B9D1B5" transform="translate(185,67)"/>
<path d="M0 0 C2.96404505 2.80804268 5.44499019 5.18315774 7 9 C3.46352496 7.32482761 2.2088437 6.50719183 0.6875 2.8125 C0.460625 1.884375 0.23375 0.95625 0 0 Z " fill="#E69DBD" transform="translate(217,28)"/>
<path d="M0 0 C-2.38457948 1.58971965 -4.6304124 2.86741593 -7.1875 4.125 C-7.90292969 4.47820313 -8.61835938 4.83140625 -9.35546875 5.1953125 C-9.89816406 5.46085937 -10.44085938 5.72640625 -11 6 C-8.60159776 0.46522561 -5.82500047 -0.25888891 0 0 Z " fill="#EF91B5" transform="translate(149,17)"/>
<path d="M0 0 C0.66 0.99 1.32 1.98 2 3 C1.34 3 0.68 3 0 3 C0.66 5.31 1.32 7.62 2 10 C0.68 10 -0.64 10 -2 10 C-1.125 2.25 -1.125 2.25 0 0 Z " fill="#63A750" transform="translate(201,168)"/>
<path d="M0 0 C3.625 -0.1875 3.625 -0.1875 7 0 C7 0.66 7 1.32 7 2 C4.04335481 3.4783226 1.25770263 3.06032783 -2 3 C-1.34 2.01 -0.68 1.02 0 0 Z " fill="#F8BD4A" transform="translate(304,139)"/>
<path d="M0 0 C0.99 0.33 1.98 0.66 3 1 C0.6875 3.5 0.6875 3.5 -2 6 C-2.99 6 -3.98 6 -5 6 C-3.86525052 2.59575156 -3.03188696 1.78346291 0 0 Z " fill="#EF79AC" transform="translate(143,19)"/>
<path d="M0 0 C0.99 0.33 1.98 0.66 3 1 C3 2.32 3 3.64 3 5 C1.35 4.67 -0.3 4.34 -2 4 C-1.34 2.68 -0.68 1.36 0 0 Z " fill="#5DA324" transform="translate(229,173)"/>
<path d="M0 0 C7.50769231 -0.36923077 7.50769231 -0.36923077 10 1.5 C10.495 2.2425 10.495 2.2425 11 3 C6.94393835 2.53199289 3.53411321 2.12046792 0 0 Z " fill="#E2AC1F" transform="translate(278,163)"/>
<path d="M0 0 C1.32257813 0.19142578 1.32257813 0.19142578 2.671875 0.38671875 C4.00992188 0.56654297 4.00992188 0.56654297 5.375 0.75 C6.05046875 0.85699219 6.7259375 0.96398437 7.421875 1.07421875 C7.421875 1.40421875 7.421875 1.73421875 7.421875 2.07421875 C2.801875 2.40421875 -1.818125 2.73421875 -6.578125 3.07421875 C-2.578125 0.07421875 -2.578125 0.07421875 0 0 Z " fill="#FCB72E" transform="translate(104.578125,154.92578125)"/>
<path d="M0 0 C2.64 0.33 5.28 0.66 8 1 C6 3 6 3 2.875 3.125 C1.451875 3.063125 1.451875 3.063125 0 3 C0 2.01 0 1.02 0 0 Z " fill="#EF9435" transform="translate(144,142)"/>
<path d="M0 0 C0.99 0 1.98 0 3 0 C2.49396008 2.16874252 2.00016187 3.99967627 1 6 C-0.32 6 -1.64 6 -3 6 C-3 5.34 -3 4.68 -3 4 C-2.01 4 -1.02 4 0 4 C0 2.68 0 1.36 0 0 Z " fill="#E37373" transform="translate(175,140)"/>
<path d="M0 0 C0.33 0.99 0.66 1.98 1 3 C-1.31 3.33 -3.62 3.66 -6 4 C-6.33 3.34 -6.66 2.68 -7 2 C-4.69 1.34 -2.38 0.68 0 0 Z " fill="#F7B726" transform="translate(276,133)"/>
<path d="M0 0 C0.99 0.33 1.98 0.66 3 1 C2.67 1.66 2.34 2.32 2 3 C1.34 3 0.68 3 0 3 C0 3.66 0 4.32 0 5 C-0.66 5 -1.32 5 -2 5 C-2.33 5.66 -2.66 6.32 -3 7 C-2.625 4.0625 -2.625 4.0625 -2 1 C-1.34 0.67 -0.68 0.34 0 0 Z " fill="#D56E9B" transform="translate(152,21)"/>
<path d="M0 0 C1.22589844 0.15275391 1.22589844 0.15275391 2.4765625 0.30859375 C3.41628906 0.43427734 3.41628906 0.43427734 4.375 0.5625 C4.375 0.8925 4.375 1.2225 4.375 1.5625 C1.075 1.8925 -2.225 2.2225 -5.625 2.5625 C-5.955 1.9025 -6.285 1.2425 -6.625 0.5625 C-4.10446405 -0.69776798 -2.7707902 -0.35624445 0 0 Z " fill="#F6BA4B" transform="translate(182.625,164.4375)"/>
<path d="M0 0 C0.53625 0.37125 1.0725 0.7425 1.625 1.125 C-0.025 1.455 -1.675 1.785 -3.375 2.125 C-3.375 2.785 -3.375 3.445 -3.375 4.125 C-4.035 4.125 -4.695 4.125 -5.375 4.125 C-5.375 3.465 -5.375 2.805 -5.375 2.125 C-6.365 1.795 -7.355 1.465 -8.375 1.125 C-2.95961538 -1.09038462 -2.95961538 -1.09038462 0 0 Z " fill="#F3B12B" transform="translate(190.375,159.875)"/>
<path d="M0 0 C1.32 0 2.64 0 4 0 C3.38722388 2.96175123 2.74627478 4.38058783 1 7 C0 6 0 6 -0.0625 2.9375 C-0.041875 1.968125 -0.02125 0.99875 0 0 Z " fill="#4EB645" transform="translate(313,101)"/>
<path d="M0 0 C0.598125 0.165 1.19625 0.33 1.8125 0.5 C4.11344336 1.1114124 4.11344336 1.1114124 7 1 C2.25 5 2.25 5 0 5 C0 3.35 0 1.7 0 0 Z " fill="#9DD88D" transform="translate(155,94)"/>
<path d="M0 0 C0.33 0.99 0.66 1.98 1 3 C1.66 3 2.32 3 3 3 C1.84826645 5.46800047 0.95216435 7.04783565 -1 9 C-1.99 8.67 -2.98 8.34 -4 8 C-3.01 7.34 -2.02 6.68 -1 6 C-0.26656572 2.93443402 -0.26656572 2.93443402 0 0 Z " fill="#F0E4D5" transform="translate(189,36)"/>
<path d="M0 0 C1 4 1 4 0 6 C0.99 6 1.98 6 3 6 C3 6.66 3 7.32 3 8 C1.68 8.33 0.36 8.66 -1 9 C-0.67 6.03 -0.34 3.06 0 0 Z " fill="#F3B538" transform="translate(50,150)"/>
<path d="M0 0 C0.99 0.99 1.98 1.98 3 3 C1.68 3.99 0.36 4.98 -1 6 C-1.33 4.35 -1.66 2.7 -2 1 C-1.34 0.67 -0.68 0.34 0 0 Z " fill="#F7BB08" transform="translate(288,142)"/>
<path d="M0 0 C1.98 0 3.96 0 6 0 C6 0.99 6 1.98 6 3 C3.69 2.67 1.38 2.34 -1 2 C-0.67 1.34 -0.34 0.68 0 0 Z " fill="#FBBE43" transform="translate(287,138)"/>
<path d="M0 0 C-0.6875 1.9375 -0.6875 1.9375 -2 4 C-4.625 4.75 -4.625 4.75 -7 5 C-7 4.34 -7 3.68 -7 3 C-2.61538462 0 -2.61538462 0 0 0 Z " fill="#D4B237" transform="translate(422,106)"/>
</svg>
